<?xml version="1.0" encoding="utf-8"?>
<!-- Generator: Adobe Illustrator 22.0.1, SVG Export Plug-In . SVG Version: 6.00 Build 0)  -->
<svg version="1.1" id="Capa_1" xmlns="http://www.w3.org/2000/svg" xmlns:xlink="http://www.w3.org/1999/xlink" x="0px" y="0px"
	 viewBox="0 0 595.3 841.9" style="enable-background:new 0 0 595.3 841.9;" xml:space="preserve">
<style type="text/css">
	.st0{fill:url(#SVGID_5_);}
	.st1{fill:url(#SVGID_7_);}
	.st2{fill:#1E1E1C;}
	.st3{fill:url(#SVGID_9_);}
	.st4{opacity:0.2;fill:#E14141;enable-background:new    ;}
	.st5{opacity:0.4;fill:#F3A0AC;enable-background:new    ;}
	.st6{opacity:0.5;fill:url(#SVGID_10_);enable-background:new    ;}
	.st7{opacity:0.5;fill:url(#SVGID_11_);enable-background:new    ;}
	.st8{fill:url(#SVGID_12_);}
	.st9{clip-path:url(#SVGID_15_);}
	.st10{clip-path:url(#SVGID_16_);fill:url(#SVGID_17_);}
	.st11{opacity:0.5;fill:#FFFFFF;enable-background:new    ;}
	.st12{opacity:0.5;fill:#F3A0AC;enable-background:new    ;}
	.st13{opacity:0.6;fill:#DEDED4;enable-background:new    ;}
	.st14{opacity:0.5;fill:#C5C4BE;enable-background:new    ;}
	.st15{fill:#F3A0AC;}
	.st16{fill:#FFFFFF;}
	.st17{opacity:0.7;fill:#E6E5DC;enable-background:new    ;}
	.st18{opacity:0.5;fill:#C4C4BD;enable-background:new    ;}
	.st19{fill:#FFFFFF;stroke:#1E1E1C;stroke-width:0.25;stroke-miterlimit:10;}
	.st20{opacity:0.5;}
	.st21{fill:#C5C4BE;}
	.st22{opacity:0.3;}
	.st23{fill:#F3F1E5;}
	.st24{opacity:0.6;}
	.st25{opacity:0.6;fill:#FFFFFF;enable-background:new    ;}
	.st26{clip-path:url(#SVGID_20_);}
	.st27{clip-path:url(#SVGID_21_);fill:url(#SVGID_22_);}
	.st28{clip-path:url(#SVGID_25_);}
	.st29{clip-path:url(#SVGID_26_);fill:url(#SVGID_27_);}
	.st30{clip-path:url(#SVGID_30_);}
	.st31{clip-path:url(#SVGID_31_);fill:url(#SVGID_32_);}
	.st32{clip-path:url(#SVGID_35_);}
	.st33{clip-path:url(#SVGID_36_);fill:url(#SVGID_37_);}
	.st34{clip-path:url(#SVGID_40_);}
	.st35{clip-path:url(#SVGID_41_);fill:url(#SVGID_42_);}
	.st36{fill:#E6E5DC;}
	.st37{fill:url(#SVGID_43_);}
	.st38{opacity:0.22;}
</style>
<linearGradient id="SVGID_5_" gradientUnits="userSpaceOnUse" x1="287.8833" y1="507.106" x2="287.8833" y2="413.8351" gradientTransform="matrix(1 0 0 -1 0 841.8898)">
	<stop  offset="0" style="stop-color:#DEA0A4"/>
	<stop  offset="0.5294" style="stop-color:#D86F71"/>
	<stop  offset="1" style="stop-color:#AB3E40"/>
</linearGradient>
<path class="st0" d="M283.5,341c-0.9,0.2-39.2,1.8-46.6,33.3c-7.4,31.5-10.4,65.5-3.6,88.5c6.7,23,22.5,60,62.6,48.1
	c40.1-11.8,42-24.5,46.6-45.5s3.7-38.3,3.7-38.3S348.3,323.7,283.5,341z"/>
<linearGradient id="SVGID_7_" gradientUnits="userSpaceOnUse" x1="288.0424" y1="532.853" x2="288.0424" y2="359.3598" gradientTransform="matrix(1 0 0 -1 0 841.8898)">
	<stop  offset="0" style="stop-color:#DEA0A4"/>
	<stop  offset="0.5294" style="stop-color:#D86F71"/>
	<stop  offset="0.6498" style="stop-color:#C54D5A"/>
	<stop  offset="1" style="stop-color:#9E1831"/>
</linearGradient>
<path class="st1" d="M283.5,341c-0.9,0.2-39.2,1.8-46.6,33.3c-7.4,31.5-11.5,78.7-4.7,101.7c6.7,23,24.9,42.6,66.6,39.1
	c40.3-3.3,41.5-27,46.1-48s1.3-40,1.3-40S348.3,323.7,283.5,341z"/>
<path class="st2" d="M326.7,432.9c-1.9-9.6-10.7-20.8-21.4-20.3c-0.8,0-8.2-0.2-13.2,4.8c-1.2,1.2-2.5,2.5-2.9,4.6
	c-0.8,4.4,3.4,7.2,2,10c-0.7,1.4-2.5,2.2-4,2c-1.2-0.1-2.4-1-3-2c-1.7-2.8,1.5-5.3,1-10c-0.3-2.9-1.9-5.6-4-7.3
	c-3.2-2.4-7-1.7-10.4-1.5c-6.2,0.3-12,3.4-15.9,8.2c-2.6,3.1-4.3,7.5-5.1,11.5c-3.7,18.8,8.5,33.7,8.5,33.7H318
	C318.2,466.7,330.4,451.7,326.7,432.9z"/>
<path class="st2" d="M326.7,437.9c-1.9-9.6-10.7-20.8-21.4-20.3c-0.8,0-8.2-0.2-13.2,4.8c-1.2,1.2-2.5,2.5-2.9,4.6
	c-0.8,4.4,3.4,7.2,2,10c-0.7,1.4-2.5,2.2-4,2c-1.2-0.1-2.4-1-3-2c-1.7-2.8,1.5-5.3,1-10c-0.3-2.9-1.9-5.6-4-7.3
	c-3.2-2.4-7-1.7-10.4-1.5c-6.2,0.3-12,3.4-15.9,8.2c-2.6,3.1-4.3,7.5-5.1,11.5c-3.7,18.8,8.5,33.7,8.5,33.7H318
	C318.2,471.7,330.4,456.7,326.7,437.9z"/>
<radialGradient id="SVGID_9_" cx="288.0424" cy="410.7173" r="55.5641" gradientTransform="matrix(1 0 0 -1 0 841.8898)" gradientUnits="userSpaceOnUse">
	<stop  offset="0" style="stop-color:#E73431"/>
	<stop  offset="0.6533" style="stop-color:#A62F2F"/>
	<stop  offset="1" style="stop-color:#5D120F"/>
</radialGradient>
<path class="st3" d="M283.5,343c-0.9,0.2-39.2,1.8-46.6,33.3c-7.4,31.5-11.5,78.7-4.7,101.7c6.7,23,24.9,42.6,66.6,39.1
	c40.3-3.3,41.5-27,46.1-48s1.3-40,1.3-40S348.3,325.7,283.5,343z"/>
<path class="st2" d="M326.7,428.5c-1.9-9.6-10.7-20.8-21.4-20.3c-0.8,0-8.2-0.2-13.2,4.8c-1.2,1.2-2.5,2.5-2.9,4.6
	c-0.8,4.4,3.4,7.2,2,10c-0.7,1.4-2.5,2.2-4,2c-1.2-0.1-2.4-1-3-2c-1.7-2.8,1.5-5.3,1-10c-0.3-2.9-1.9-5.6-4-7.3
	c-3.2-2.4-7-1.7-10.4-1.5c-6.2,0.3-12,3.4-15.9,8.2c-2.6,3.1-4.3,7.5-5.1,11.5c-3.7,18.8,8.5,33.7,8.5,33.7H318
	C318.2,462.2,330.4,447.3,326.7,428.5z"/>
<path class="st4" d="M246.4,444.2c0,0-11.3-53.3,42.9-56.4c0,0,45.2-4.7,40.7,56.4c0,0,2.3-59.5-40.7-55.5
	C289.3,388.7,242.3,384.7,246.4,444.2z"/>
<path class="st4" d="M246.4,455.2c0,0-11.3-53.3,42.9-56.4c0,0,45.2-4.7,40.7,56.4c0,0,2.3-59.5-40.7-55.5
	C289.3,399.7,242.3,395.7,246.4,455.2z"/>
<path class="st5" d="M344.2,457.1c-3.5-3.8-8.1-6.7-13.1-8.1c-2.5-0.7-5.1-1-7.6-0.8c-3.1,0.3-6.2,0.9-9.3,1.3
	c-12,1.9-24,4.2-36.2,4.6c-6.2,0.2-12.4-0.1-18.6-0.6c-2.8-0.2-5.7-0.4-8.5-1.2c-2.6-0.8-5.3-2-8.1-1.8c-4.8,0.5-9.1,3.4-12.4,6.8
	c-0.4,0.4-0.8,0.9-1.2,1.3c0.5,6.6,1.5,12.5,2.9,17.3c6.7,23,24.9,42.6,66.6,39.1c40.3-3.3,41.5-27,46.1-48c0.6-2.6,1-5.1,1.4-7.6
	C345.6,458.7,344.9,457.9,344.2,457.1z"/>
<linearGradient id="SVGID_10_" gradientUnits="userSpaceOnUse" x1="241.994" y1="409.944" x2="232.0478" y2="409.554" gradientTransform="matrix(1 0 0 -1 0 841.8898)">
	<stop  offset="0" style="stop-color:#DEA0A4"/>
	<stop  offset="0.5363" style="stop-color:#DA6F64"/>
	<stop  offset="1" style="stop-color:#AB3E40"/>
</linearGradient>
<path class="st6" d="M233.2,420.1c0,0-0.9,20.7,0.5,25.8c1.4,5.1,9.5,3.5,9.9-7.6s1.8-13,2.4-16.7
	C246.5,417.8,234.9,411,233.2,420.1z"/>
<linearGradient id="SVGID_11_" gradientUnits="userSpaceOnUse" x1="-29.291" y1="409.9433" x2="-39.2371" y2="409.5533" gradientTransform="matrix(-1 0 0 -1 304.6328 841.8898)">
	<stop  offset="0" style="stop-color:#DEA0A4"/>
	<stop  offset="0.5363" style="stop-color:#DA6F64"/>
	<stop  offset="1" style="stop-color:#AB3E40"/>
</linearGradient>
<path class="st7" d="M342.7,420.1c0,0,0.9,20.7-0.5,25.8c-1.4,5.1-9.5,3.5-9.9-7.6s-1.8-13-2.4-16.7
	C329.4,417.8,341,411,342.7,420.1z"/>
<linearGradient id="SVGID_12_" gradientUnits="userSpaceOnUse" x1="288.7" y1="359.0777" x2="288.7" y2="429.2375" gradientTransform="matrix(1 0 0 -1 0 841.8898)">
	<stop  offset="0.2649" style="stop-color:#E9A9A4"/>
	<stop  offset="0.7635" style="stop-color:#E2787A"/>
	<stop  offset="1" style="stop-color:#DD496A"/>
</linearGradient>
<path class="st8" d="M327.7,442c0-3-0.8-5.4-2.1-7.3c-6-8.7-23.9-10.8-31.3-4c-1.7,1.6-3.4,4.2-6,4c-2.4-0.1-3.7-2.5-5.2-4
	c-6.7-6.9-25.1-5-31.3,4c-1.3,1.9-2.1,4.3-2.1,7.3c-0.3,17.7,8.1,37.3,34.9,38.8c1.5,0.2,3,0.2,4,0.2c1.1,0,2.5,0,4-0.2
	C319.6,479.3,328,459.7,327.7,442z"/>
<path class="st4" d="M246.4,450.2c0,0-11.3-53.3,42.9-56.4c0,0,45.2-4.7,40.7,56.4c0,0,2.3-59.5-40.7-55.5
	C289.3,394.7,242.3,390.7,246.4,450.2z"/>
<g>
	<g>
		<defs>
			<polygon id="SVGID_13_" points="1,1 2,1 1,2 			"/>
		</defs>
		<defs>
			<polygon id="SVGID_14_" points="-1,-1 -2,-1 -1,-2 			"/>
		</defs>
		<clipPath id="SVGID_15_">
			<use xlink:href="#SVGID_13_"  style="overflow:visible;"/>
		</clipPath>
		<clipPath id="SVGID_16_" class="st9">
			<use xlink:href="#SVGID_14_"  style="overflow:visible;"/>
		</clipPath>
		
			<linearGradient id="SVGID_17_" gradientUnits="userSpaceOnUse" x1="262.5202" y1="365.8848" x2="269.9912" y2="381.657" gradientTransform="matrix(1 0 0 -1 0 841.8898)">
			<stop  offset="0" style="stop-color:#FFFFFF"/>
			<stop  offset="0.5363" style="stop-color:#FFFFFF"/>
			<stop  offset="1" style="stop-color:#000000"/>
		</linearGradient>
		<path class="st10" d="M258.3,435c0,0-4.1-0.1-5.3,6.1s-2.4,34.3,31.4,36.4c0,0,5.3,0.8,3.6-0.6c-1.7-1.3-16.5-3.7-20.8-13.1
			C258.6,445.1,271.2,434.1,258.3,435z"/>
	</g>
</g>
<path class="st11" d="M258.3,435c0,0-4.1-0.1-5.3,6.1s-2.4,34.3,31.4,36.4c0,0,5.3,0.8,3.6-0.6c-1.7-1.3-16.5-3.7-20.8-13.1
	C258.6,445.1,271.2,434.1,258.3,435z"/>
<path class="st4" d="M246.4,436.2c0,0-11.3-53.3,42.9-56.4c0,0,45.2-4.7,40.7,56.4c0,0,2.3-59.5-40.7-55.5
	C289.3,380.7,242.3,376.7,246.4,436.2z"/>
<path class="st4" d="M246.4,440.2c0,0-11.3-53.3,42.9-56.4c0,0,45.2-4.7,40.7,56.4c0,0,2.3-59.5-40.7-55.5
	C289.3,384.7,242.3,380.7,246.4,440.2z"/>
<path class="st12" d="M287.4,350.6c0,0-0.1,0,0.1,1.2s0.5,4.6,0.8,4.1C288.5,355.4,288.1,351.1,287.4,350.6z"/>
<path class="st13" d="M232.9,446.7c0.3-1,0.9-2,2-2.2c1-0.2,2,0,3,0.3c-0.4-0.6-0.9-1.1-1.5-1.4c-0.8-0.4-1.6-0.2-2.4,0
	c-0.7,0.1-1.2-0.2-1.6-0.7c-0.1-0.1-0.2-0.3-0.2-0.4c0,0.6,0,1.3,0.1,2c0.1,1.2,0.1,3.1,0.3,5.4
	C232.5,448.6,232.6,447.6,232.9,446.7z"/>
<path class="st13" d="M237.6,469.3c0-0.1,0-0.1,0.1-0.2c-1.3-2.7-1.6-5.7-0.8-8.7c0.3-1.2,0.6-2.8,1.7-3.7c1.1-0.9,2.6-1.5,3.7-2.4
	c-0.8,0.1-1.6,0.5-2.4,0.8c-0.9,0.4-1.9,0.6-2.3,1.6c-0.4,1-0.5,2.6-1.3,3.3c-0.9,0.9-1.8,0.3-2.5-0.7c0.4,1.8,0.9,3.6,1.6,5.3
	c0.6,1.7,1.4,3.2,2.3,4.8C237.6,469.4,237.6,469.4,237.6,469.3z"/>
<path class="st13" d="M241.9,467.8c-0.8,0.9-1,1.9-1.3,3c-0.2,0.6-0.4,1.3-1.1,1.5c-0.1,0-0.2,0-0.2,0c0.9,1.4,1.9,2.8,3,4.2
	c-0.7-1.7-1.4-3.3-1.3-5.1c0.1-2.2,1.5-3.7,3.1-5C243.3,466.6,242.5,467.1,241.9,467.8z"/>
<path class="st14" d="M270,481.5c-6.1-0.3-9.7-3.8-12.6-7.9h-0.1c-1.9-0.6-3.7-1.5-5.1,0.5c-1.1,1.6-1.7,3.5-1.7,5.5
	c0,0.9,0.2,2.3-0.3,3.1c-0.4,0.7-1.2,0.9-2,1c1,1.2,2.1,2.5,3.2,3.9c14.6,18.1,33.5,12.8,33.5,12.8v-18.9
	C277.6,481.9,270,481.5,270,481.5z"/>
<path class="st15" d="M252.2,482.8c-1.9,3.3-11.4-7.7-11.4-10.9c-3-0.4-5.2-7-4.7-10.3c-2.4-1.8-3.5-9.3-3.5-9.3l-1.4,1.4l-1.8,6.7
	l4,14.3c10.5,41.5,55,33,55,33V492C273.9,492.6,261.3,489.1,252.2,482.8z"/>
<path class="st12" d="M239.8,471.8c0.7,0.7,1.3,1.5,1.7,2.4c0.5,1,1,2,1.7,2.9c0.5,0.6,1.1,1.1,1.6,1.6c-2.2-2.5-4-5.4-4-6.8
	c-0.7-0.1-1.4-0.6-2-1.3C239.1,471.1,239.4,471.5,239.8,471.8z"/>
<path class="st12" d="M233.9,458.6c0.8,2.4,1.4,4.9,2.5,7.2c0.1,0.2,0.2,0.4,0.3,0.7c-0.5-1.8-0.7-3.6-0.5-4.9
	c-1.4-1.1-2.3-4-2.9-6.2C233.4,456.5,233.6,457.5,233.9,458.6z"/>
<g>
	<path class="st16" d="M246.3,469.2c-0.1-0.1-0.2-0.1-0.3-0.2s-0.2-0.1-0.4-0.1c-0.3-0.1-0.6,0-1-0.1c0,0-0.1,0-0.2,0l0,0
		c0.2-0.7,0.9-1,1.2-1.7c0.1-0.1,0.1-0.3-0.1-0.3c-0.7-0.3-2.1,0.9-2.5,1.4c-0.1,0.2-0.2,0.3-0.3,0.5c-0.3,0.5-0.6,1-0.8,1.3
		c-0.6,1.4,0,3.7,1.4,4.4c0.1,0.1,0.2,0,0.3-0.1c0.7-0.5,0.7-1.3,0.6-2.1c0,0,0,0,0-0.1c0-0.3,0.1-0.6,0.2-0.7l0,0
		c0.3-0.1,0.5-0.2,0.8-0.3c0.5-0.2,1-0.7,1.1-1.2C246.6,469.5,246.5,469.3,246.3,469.2z"/>
	<path class="st16" d="M250.4,471.9c-0.2-0.3-0.7-0.3-1-0.4c-0.5-0.1-1,0.1-1.3,0.6c0,0,0,0.1-0.1,0.1c-0.3,0.2-0.5,0.6-0.2,0.9
		c0.5,0.6,1.7,0.3,2.2-0.1C250.3,472.8,250.6,472.3,250.4,471.9z"/>
	<path class="st16" d="M239.3,459.7c-0.4-0.4-0.8-0.1-1.1,0.3c-0.4,0.3-0.5,1-0.5,1.4c-0.2,1.9,0,4.5,1.1,6.1
		c0.2,0.3,0.7-0.4,0.7-0.6c-0.1-1.6-0.2-3,0.3-4.5C240,461.3,240.1,460.5,239.3,459.7z"/>
	<path class="st16" d="M245.5,461.4c-0.2-0.2-0.6,0.1-0.8,0.2s-0.4,0.4-0.5,0.6s-0.3,0.6-0.1,0.8c0,0.1,0,0.1,0,0.2
		c0.1,0.2,0.3,0.1,0.4,0.1c0.1-0.1,0.2-0.1,0.3-0.2c0,0,0.1-0.1,0.2-0.1c0.5,0,0.9-0.4,1-0.9C246.1,461.8,245.8,461.6,245.5,461.4z"
		/>
	<path class="st16" d="M238.3,448.9c-0.2-1.3-0.9-2.4-1.9-3.1c-0.3-0.2-0.6-0.2-0.9,0c-0.5,0-1,0.5-1.2,1.5c-0.4,1.7-0.3,3.2,0,4.9
		c0.1,0.9,0.2,3,1.1,3.5c0.3,0.2,0.7-0.4,0.7-0.7c0-1.6-0.1-3,0.1-4.4c0.5-0.5,1.2-0.5,1.8-0.9C238.1,449.5,238.3,449.1,238.3,448.9
		z"/>
	<path class="st16" d="M245,448.3c0-0.1,0-0.1,0-0.1c-0.8-0.6-1.6,0.1-2,0.7c-0.3,0.4-0.6,0.8-0.4,1.3c0.1,0.4,0.6,0.5,0.9,0.5
		c0.8,0,1.6,0,2.1-0.7C246,449.3,245.7,448.6,245,448.3z"/>
	<path class="st16" d="M236.2,439c-0.3-0.3-0.7-0.4-1.1-0.4c-0.1,0-0.2,0-0.3,0s-0.2,0.1-0.3,0.1c-0.2,0.1-0.4,0.3-0.5,0.5
		c-0.4,0.3-0.8,0.8-0.6,1.2c0.2,0.5,0.8,0.3,1.1,0.2c0.3-0.1,0.7-0.1,1-0.1s0.5,0.1,0.7-0.1s0.5-0.5,0.5-0.8
		C236.6,439.3,236.4,439.2,236.2,439z"/>
	<path class="st16" d="M239.1,436.2c-0.2-0.1-0.4,0-0.6,0c-0.2,0-0.4-0.1-0.7,0c-0.2,0.1-0.5,0.3-0.5,0.6c0,0.3,0.1,0.4,0.3,0.4
		c0.1,0.2,0.3,0.3,0.5,0.4c0.4,0.2,0.8-0.1,1.1-0.4C239.5,436.8,239.6,436.4,239.1,436.2z"/>
	<path class="st16" d="M244.7,439.8c-0.1-0.1-0.3-0.2-0.4-0.3c-0.2-0.1-0.4,0.1-0.5,0.2c-0.1,0-0.2,0-0.3,0.1l0,0l0,0l0,0
		c-0.2,0.1-0.4,0.5-0.3,0.7c0.1,0.2,0.2,0.3,0.3,0.4c0.3,0.2,0.8,0.3,1.1,0.1c0.2-0.1,0.5-0.5,0.5-0.7
		C244.9,440.1,244.8,440,244.7,439.8z"/>
	<path class="st16" d="M254.1,475.2c-0.1-0.5-0.5-0.7-0.9-0.3c-0.1,0.1-0.1,0.2-0.2,0.3c-0.9,0.8-0.8,2.9-0.8,3.9
		c0,0.4,0,1.3,0.6,1.2c0.8-0.2,1-1.5,1.1-2.2C254.1,477.2,254.2,476.2,254.1,475.2z"/>
	<path class="st16" d="M260.4,478.2c-0.5,0.4-0.4,1.4-0.5,1.9c0,0.6,0,1.5,0.3,2.2c0.1,0.2,0.1,0.4,0.2,0.6c0.2,0.5,0.6,0.5,0.9,0.1
		c0.4-0.5,0.4-1.4,0.4-2C261.8,480.4,261.8,477,260.4,478.2z"/>
	<path class="st16" d="M270.5,487.6c-0.2-1.2-0.4-2.4-0.5-3.6c0-1.5-0.1-2.8-1.8-3.1c-0.3-0.1-0.7,0.4-0.8,0.7
		c-0.1,0.3-0.2,0.7-0.1,1.1c0,1.1,0.2,2.2,0.6,3.2c0.4,1.2,1,3.1,2.1,4c0.3,0.2,0.8-0.5,0.8-0.7
		C270.9,488.6,270.7,488.1,270.5,487.6z"/>
	<path class="st16" d="M281.1,488.9c0-1-0.1-2.1-0.1-3.1c0-1.2,0.5-3.2-1-3.7c0,0,0,0-0.1,0V482c-3.6-0.6-1,8.2,0.4,9.3
		c0.3,0.2,0.7-0.4,0.7-0.6C281.3,490,281.1,489.5,281.1,488.9z"/>
</g>
<path class="st15" d="M323.5,482.8c1.9,3.3,11.4-7.7,11.4-10.9c3-0.4,5.2-8.2,4.6-11.5c3.1-3.2,3.5-6.3,3.5-6.3l2.7,3.3l-1.9,15
	c-10.5,41.5-56.5,35.2-56.5,35.2V492C301.8,492.6,314.5,489.1,323.5,482.8z"/>
<g>
	<path class="st16" d="M337.3,436.7c0,0,6-1,6,5c0,0,0,5.5,0,7.3c0,1.7-7.8-0.6-7.8-0.6s-2.6,0.8-2.9,0.6c-0.3-0.3-3.1-2.3-3.1-2.3
		s-3.9-2.6,1-8.8C330.5,437.9,333.3,435.7,337.3,436.7z"/>
	<path class="st2" d="M337.3,436.7c1-0.1,2.1-0.1,3,0.2c1,0.3,1.9,1,2.4,1.9s0.6,2,0.7,3v3.1v3.1v0.8c0,0.1,0,0.3,0,0.4
		c-0.1,0.1-0.2,0.3-0.3,0.3c-0.5,0.2-1,0.2-1.6,0.2c-2.1-0.1-4.1-0.6-6.1-1.2h0.1c-0.7,0.2-1.3,0.4-2,0.5c-0.2,0-0.3,0.1-0.5,0.1
		c-0.1,0-0.2,0-0.3,0c-0.1-0.1-0.2-0.1-0.3-0.2l-0.8-0.6l-1.7-1.2c-0.3-0.2-0.6-0.4-0.8-0.7c-0.3-0.3-0.4-0.6-0.6-0.9
		c-0.7-1.3-0.6-2.8-0.1-4.1c0.5-1.3,1.2-2.5,2.1-3.6l0,0l0,0c1-0.7,2.1-1.1,3.3-1.3S336.2,436.4,337.3,436.7z M337.3,436.7
		c-1.2-0.3-2.4-0.3-3.5-0.1c-1.2,0.2-2.3,0.7-3.3,1.3l0,0c-0.8,1.1-1.6,2.3-2,3.6c-0.5,1.3-0.5,2.8,0.1,4c0.3,0.6,0.8,1.1,1.4,1.5
		l1.7,1.2l0.9,0.6c0.2,0.2,0.6,0.1,0.9,0c0.7-0.1,1.3-0.3,2-0.5l0,0l0,0c2,0.5,4,1.1,6,1.2c0.5,0,1,0,1.5-0.2
		c0.2-0.1,0.3-0.3,0.2-0.6v-0.8v-3.1v-3.1c0-1-0.1-2-0.6-2.9s-1.3-1.6-2.3-1.9C339.4,436.6,338.3,436.5,337.3,436.7z"/>
</g>
<g>
	<path class="st16" d="M339.3,461.7c0,0,3-1,4-12c0,0,0.9-7.8-5.6-4.9c0,0-5.4,3.9-9.4-0.1c0,0-2,6,0,11L339.3,461.7z"/>
	<path class="st2" d="M339.3,461.7c0.8-0.5,1.3-1.4,1.7-2.2c0.4-0.9,0.7-1.8,1-2.7c0.5-1.8,0.8-3.7,1-5.6c0.1-0.9,0.2-1.9,0.2-2.8
		s-0.2-1.9-0.6-2.7c-0.4-0.8-1.2-1.4-2.2-1.5c-0.9-0.1-1.8,0.3-2.7,0.6l0,0c-0.7,0.5-1.5,0.9-2.3,1.2c-0.8,0.3-1.7,0.5-2.5,0.6
		c-0.9,0-1.8-0.1-2.6-0.4c-0.8-0.3-1.5-0.8-2.2-1.4h0.2c-0.5,1.8-0.8,3.6-0.9,5.5s0.2,3.7,0.9,5.5l0,0L339.3,461.7z M339.3,461.7
		l-11-5.9l0,0l0,0c-0.7-1.8-0.9-3.6-0.9-5.5s0.3-3.7,0.9-5.5l0.1-0.2l0.1,0.1c0.6,0.6,1.3,1.1,2.1,1.4c0.8,0.3,1.6,0.4,2.5,0.4
		c1.7-0.1,3.3-0.7,4.7-1.7l0,0l0,0c0.9-0.4,1.8-0.7,2.8-0.6c1,0,1.9,0.7,2.3,1.6c0.9,1.8,0.6,3.8,0.4,5.7c-0.2,1.9-0.5,3.8-1.1,5.6
		c-0.3,0.9-0.6,1.8-1,2.7C340.7,460.3,340.2,461.2,339.3,461.7z"/>
</g>
<g>
	<path class="st16" d="M339.3,462.7c0,0-0.1-3.3-1.6-5.6c-0.4-0.4-7.9-2.6-9.2-2c-1.3,0.6-3.3,5.6-2.3,9.6l8,8
		C334.3,472.7,339.3,472.7,339.3,462.7z"/>
	<path class="st2" d="M339.3,462.7c-0.1-2-0.6-3.9-1.6-5.6l0,0c-1.5-0.6-3.1-1-4.7-1.4c-0.8-0.2-1.6-0.4-2.4-0.5
		c-0.4-0.1-0.8-0.1-1.2-0.1c-0.4,0-0.8,0-1.1,0.3c-0.6,0.6-0.9,1.3-1.2,2.1c-0.3,0.8-0.5,1.5-0.7,2.4c-0.3,1.6-0.3,3.3,0,4.8v-0.1
		l8,8l0,0c1-0.1,1.9-0.6,2.6-1.4c0.7-0.7,1.2-1.6,1.5-2.6c0.2-0.5,0.3-1,0.4-1.5s0.2-1,0.3-1.5C339.3,464.7,339.3,463.7,339.3,462.7
		z M339.3,462.7c0,1,0,2-0.2,3c0,0.5-0.2,1-0.2,1.5c-0.1,0.5-0.2,1-0.4,1.5c-0.3,1-0.8,1.9-1.5,2.6c-0.7,0.8-1.6,1.3-2.7,1.4l0,0
		l0,0l-8-8l0,0l0,0c-0.4-1.6-0.3-3.3,0-4.9c0.2-0.8,0.4-1.6,0.7-2.4c0.3-0.8,0.7-1.5,1.3-2.1c0.3-0.3,0.8-0.4,1.2-0.4
		c0.4,0,0.8,0.1,1.2,0.1c0.8,0.1,1.6,0.3,2.4,0.5c1.6,0.4,3.2,0.8,4.7,1.5l0,0l0,0c0.5,0.9,0.8,1.8,1.1,2.7
		C339.1,460.7,339.3,461.7,339.3,462.7z"/>
</g>
<path class="st17" d="M331.1,439.1c0.7,0.1,1.4-0.2,2.1,0c0.8,0.2,1.6,0.4,2.3,0.8l0,0c1.6-1.8,3.8-3,6.3-2.6c0.1,0,0.3,0.2,0.1,0.3
	c-2.6,0.8-5.3,1.8-7,4c-0.1,0.1-0.4-0.2-0.3-0.4c0.2-0.4,0.5-0.7,0.7-1c-0.7-0.2-1.3-0.5-2.1-0.6c-0.6-0.1-1.4,0-2-0.2
	C331.1,439.3,330.9,439,331.1,439.1z"/>
<path class="st18" d="M330.6,446.2h0.1c0,0,0,0,0.1,0l0,0c0.8,0,1.4,0.4,2.1,0.8c0.9,0.5,2.1-0.2,2.9-0.8l0.1-0.1
	c0.6-0.7,1.4-1.1,2.2-1.4c0.3-0.1,0.7-0.2,1-0.3c0.4-0.1,0.8,0.1,1.2-0.1c0.1,0,0.3,0.2,0.2,0.2c-0.3,0.2-0.7,0.2-1.1,0.3
	c-0.7,0.2-1.4,0.6-2,1c-0.9,0.6-2.4,2.1-1.9,3.3c0.1,0.2-0.2,0.1-0.2,0c-0.3-0.5-0.3-1.2,0-1.7c-0.3,0.2-0.6,0.3-0.9,0.4
	c-0.2,0.1-0.4,0-0.6,0c0.2,0.3,0.4,0.6,0.4,1c0.1,0.4-0.4,0-0.5-0.1c-0.3-0.5-0.5-1-1-1.3c-0.6-0.3-1.1-0.6-1.8-0.8
	C330.7,446.6,330.4,446.3,330.6,446.2z"/>
<g>
	<path class="st16" d="M318,473.8c0,0,2.5-3.9,2.4-3.5s1.9-2.9,2.9-2.8l1-0.9c0,0,1-3,2-3s9,5,9,8l0,0c0,0-3.8,9.4-10.9,11.7
		C324.5,483.3,317.7,474,318,473.8z"/>
	<path class="st2" d="M318,473.8l1.1-1.8c0.4-0.6,0.7-1.2,1.2-1.8l0,0c0,0,0,0,0.1,0l0,0l0,0c-0.1,0,0,0,0,0l0.1-0.1l0.2-0.2
		l0.3-0.4c0.2-0.3,0.4-0.6,0.7-0.8c0.2-0.3,0.5-0.5,0.7-0.8c0.3-0.2,0.6-0.5,1-0.5h-0.1l1-0.9l0,0c0.2-0.6,0.5-1.3,0.8-1.9
		c0.2-0.3,0.4-0.6,0.6-0.8c0.1-0.1,0.3-0.2,0.4-0.3c0.2-0.1,0.4,0,0.5,0c1.3,0.5,2.4,1.3,3.5,2c1.1,0.8,2.2,1.6,3.2,2.5
		c0.9,0.9,2,2,2.1,3.4l0,0l0,0c-0.5,1.3-1.2,2.5-1.9,3.6c-0.7,1.2-1.5,2.3-2.4,3.3s-1.9,2-3,2.8s-2.3,1.5-3.6,1.9h-0.1l0,0
		c-1.1-1.6-2.2-3.1-3.3-4.7l-1.6-2.4l-0.8-1.2C318.5,474.7,318.1,474.3,318,473.8z M318,473.8c0.1,0.5,0.4,0.8,0.7,1.2l0.8,1.2
		l1.6,2.4l3.3,4.7h-0.1c1.3-0.5,2.5-1.1,3.6-1.9s2.1-1.8,2.9-2.8c1.7-2.1,3.2-4.4,4.3-6.9l0,0c-0.1-1.3-1.1-2.4-2-3.3
		c-1-0.9-2-1.8-3.1-2.5c-1.1-0.8-2.2-1.5-3.5-2c-0.2,0-0.3-0.1-0.4,0s-0.3,0.2-0.4,0.3c-0.2,0.2-0.4,0.5-0.6,0.8
		c-0.3,0.6-0.6,1.2-0.8,1.8l0,0l0,0l-1,0.9l0,0l0,0c-0.3,0-0.6,0.2-0.9,0.4c-0.3,0.2-0.5,0.5-0.7,0.8s-0.5,0.5-0.7,0.8l-0.3,0.4
		l-0.2,0.2l-0.1,0.1c0,0,0,0.1-0.1,0c0,0,0-0.1,0,0l0,0l0,0l0,0c-0.4,0.5-0.8,1.2-1.2,1.7L318,473.8z"/>
</g>
<g>
	<path class="st16" d="M238.3,435.7c0,0-6-1-6,5c0,0,0,5.5,0,7.3c0,1.7,7.8-0.6,7.8-0.6s2.6,0.8,2.9,0.6c0.3-0.3,3.1-2.3,3.1-2.3
		s3.9-2.6-1-8.8C245.2,436.9,242.3,434.7,238.3,435.7z"/>
	<path class="st2" d="M238.3,435.7c-1-0.1-2.1,0-3,0.3c-1,0.3-1.8,1-2.3,1.9s-0.6,1.9-0.6,2.9v3.1v3.1v0.8c0,0.3,0,0.5,0.2,0.6
		c0.4,0.2,1,0.2,1.5,0.2c2-0.2,4-0.7,6-1.2l0,0l0,0c0.7,0.2,1.3,0.4,2,0.5c0.3,0,0.7,0.2,0.9,0l0.9-0.6l1.7-1.2
		c0.6-0.4,1.1-0.8,1.4-1.5c0.7-1.2,0.6-2.7,0.1-4c-0.4-1.3-1.2-2.5-2-3.6l0,0c-1-0.7-2.1-1.1-3.3-1.3
		C240.7,435.3,239.5,435.4,238.3,435.7z M238.3,435.7c1.2-0.3,2.4-0.4,3.6-0.2c1.2,0.2,2.3,0.6,3.3,1.3l0,0l0,0
		c0.8,1.1,1.6,2.3,2.1,3.6c0.5,1.3,0.6,2.8-0.1,4.1c-0.2,0.3-0.4,0.6-0.6,0.9c-0.2,0.3-0.6,0.5-0.8,0.7l-1.7,1.2l-0.8,0.6
		c-0.1,0-0.1,0.1-0.3,0.2c-0.1,0-0.2,0-0.3,0c-0.2,0-0.4,0-0.5-0.1c-0.7-0.1-1.4-0.3-2-0.5h0.1c-2,0.5-4,1-6.1,1.2
		c-0.5,0-1.1,0-1.6-0.2c-0.1-0.1-0.2-0.2-0.3-0.3c-0.1-0.2,0-0.3,0-0.4V447v-3.1v-3.1c0-1,0.1-2.1,0.7-3c0.5-0.9,1.4-1.6,2.4-1.9
		C236.3,435.6,237.3,435.5,238.3,435.7z"/>
</g>
<path class="st17" d="M328.2,459.6c0.4,0,0.7,0,1.1,0c0.4-0.1,0.9-0.2,1.3-0.4c0.2-0.1,0.5-0.1,0.7-0.2c-0.4-0.3-0.8-0.7-1.2-1
	c-0.2-0.1-0.3-0.6,0-0.4c0.4,0.2,0.7,0.3,1.1,0.5s0.7,0.4,1,0.6c0.1,0.1,0.2,0.1,0.3,0.1c0.5-0.7,1.9-1.3,2.7-1
	c0.1,0,0.4,0.3,0.2,0.4c-0.7,0.4-1.7,1.1-2,1.9c-0.1,0.2-0.3,1.1-0.2,1.4c0.3,0.5,0.4,0.8,0.4,1.4c0,0.2-0.3,0.1-0.4,0
	s-0.2-0.2-0.2-0.3c0-0.1,0-0.2,0-0.2c-0.1-0.6-0.5-1.1-0.6-1.7c-0.1-0.3-0.1-0.7-0.1-1c-0.5,0-1.1,0.2-1.6,0.3
	c-0.7,0.2-1.3,0.3-2,0.2C328.3,460.3,327.9,459.6,328.2,459.6z"/>
<g>
	<path class="st16" d="M236.3,460.7c0,0-3-1-4-12c0,0-0.9-7.8,5.6-4.9c0,0,5.4,3.9,9.4-0.1c0,0,2,6,0,11L236.3,460.7z"/>
	<path class="st2" d="M236.3,460.7c-0.8-0.5-1.4-1.3-1.8-2.2c-0.4-0.8-0.8-1.7-1-2.7c-0.5-1.8-0.8-3.7-1.1-5.6
		c-0.2-1.9-0.5-3.9,0.4-5.7c0.4-0.9,1.3-1.6,2.3-1.6c1-0.1,1.9,0.3,2.8,0.6l0,0l0,0c1.4,0.9,3,1.6,4.7,1.7c0.8,0,1.7-0.1,2.5-0.4
		s1.5-0.8,2.1-1.4l0.1-0.1l0.1,0.2c0.5,1.8,0.8,3.7,0.9,5.5c0,1.9-0.2,3.8-0.9,5.5l0,0l0,0L236.3,460.7z M236.3,460.7l11-6.1l0,0
		c0.7-1.7,0.9-3.6,0.9-5.5c-0.1-1.9-0.3-3.7-0.9-5.5h0.2c-0.6,0.6-1.3,1.1-2.2,1.4c-0.8,0.3-1.7,0.4-2.6,0.4
		c-0.9-0.1-1.7-0.3-2.5-0.6c-0.8-0.3-1.6-0.7-2.3-1.2l0,0c-0.9-0.4-1.8-0.7-2.7-0.6c-0.9,0-1.8,0.6-2.2,1.5
		c-0.4,0.8-0.6,1.8-0.6,2.7c0,0.9,0.1,1.9,0.2,2.8c0.2,1.9,0.5,3.8,1,5.6c0.2,0.9,0.6,1.8,1,2.7C235,459.3,235.5,460.2,236.3,460.7z
		"/>
</g>
<path class="st17" d="M323.2,470.1c0.4,0,0.8-0.2,1.2-0.2c0.3,0,0.6,0,0.8,0.1c0-0.2,0.2-0.3,0.4-0.5c-0.7-0.1-1.3-0.2-1.9-0.3
	c-0.1,0-0.5-0.2-0.3-0.2c0.5-0.2,1.2-0.1,1.7-0.1c0.6,0,1.2,0,1.8-0.1c0.3-0.1,1.1-0.3,1.4-0.2c-0.1,0-0.1-0.1,0.1-0.1
	c0.1,0,0.2,0,0.3,0c0.1,0,0.3,0.1,0.2,0.2c-0.4,0.3-0.9,0.5-1.5,0.6c-0.3,0.2-0.6,0.3-0.8,0.4c-0.2,0.1-0.3,0.2-0.5,0.3
	c-0.1,0-0.1,0.1-0.1,0.1c0.7,0.2,1.6,0.4,2,0.9l0,0l0,0c0.1,0.1,0,0.2-0.2,0.1c-0.7-0.1-1.5-0.3-2.2-0.5c-0.4-0.1-0.8-0.3-1.3-0.4
	C323.9,470.2,323.6,470.2,323.2,470.1C323.3,470.3,323.1,470.1,323.2,470.1z"/>
<g>
	<path class="st19" d="M314.9,486.3c0,0,1,3.3,5.9,1.9c4.8-1.5,3.9-9.3,3.9-9.3s-0.9-6-3.8-5.5c-2.2,0.3-4.9,1.5-5,3.1
		C315.9,478,313.7,482.4,314.9,486.3z"/>
</g>
<g>
	<path class="st16" d="M236.3,461.7c0,0,0.1-3.3,1.6-5.6c0.4-0.4,7.9-2.6,9.2-2s3.3,5.6,2.3,9.6l-8,8
		C241.3,471.7,236.3,471.7,236.3,461.7z"/>
	<path class="st2" d="M236.3,461.7c0-1,0.2-2,0.4-2.9c0.2-1,0.6-1.9,1.1-2.7l0,0l0,0c1.5-0.7,3.1-1.1,4.7-1.5
		c0.8-0.2,1.6-0.4,2.4-0.5c0.4-0.1,0.8-0.1,1.2-0.1s0.9,0,1.2,0.4c0.6,0.6,1,1.4,1.3,2.1c0.3,0.8,0.5,1.6,0.7,2.4
		c0.3,1.6,0.4,3.3,0,4.9l0,0l0,0l-8,8l0,0l0,0c-1-0.1-2-0.7-2.7-1.4c-0.7-0.8-1.2-1.7-1.5-2.6c-0.2-0.5-0.3-1-0.4-1.5
		c-0.1-0.5-0.2-1-0.2-1.5C236.4,463.7,236.4,462.7,236.3,461.7z M236.3,461.7c0,1,0.1,2,0.2,3c0.1,0.5,0.2,1,0.3,1.5s0.3,1,0.4,1.5
		c0.3,1,0.8,1.9,1.5,2.6s1.6,1.3,2.6,1.4l0,0l8-8v0.1c0.4-1.6,0.3-3.2,0-4.8c-0.2-0.8-0.4-1.6-0.7-2.4c-0.3-0.7-0.7-1.5-1.2-2.1
		c-0.3-0.3-0.7-0.3-1.1-0.3c-0.4,0-0.8,0.1-1.2,0.1c-0.8,0.1-1.6,0.3-2.4,0.5c-1.6,0.4-3.2,0.8-4.7,1.4l0,0
		C236.9,457.7,236.5,459.7,236.3,461.7z"/>
</g>
<g class="st20">
	<path class="st21" d="M316,476.4c0-1.2,1.5-2.1,3.1-2.7c-0.6,0.3-1.2,0.7-1.7,1.2c-1,1.3,0.2,3.1,0.3,4.5c0.1,2.8-1.5,5.7-1.4,8.4
		c-1-0.7-1.4-1.6-1.4-1.6C313.7,482.4,315.9,478,316,476.4z"/>
</g>
<g>
	<path class="st16" d="M257.3,473.8c0,0-2.5-3.9-2.4-3.5s-1.9-2.9-2.9-2.8l-1-0.9c0,0-1-3-2-3s-9,5-9,8l0,0c0,0,4.2,9.7,11.3,12
		C251.3,483.7,257.6,474,257.3,473.8z"/>
	<path class="st2" d="M257.3,473.8l-1.2-1.8c-0.4-0.6-0.8-1.2-1.2-1.7l0,0l0,0l0,0l0,0c-0.1,0.1-0.1,0-0.1,0l-0.1-0.1l-0.2-0.2
		l-0.3-0.4c-0.2-0.3-0.4-0.6-0.7-0.8c-0.2-0.3-0.5-0.5-0.7-0.8c-0.3-0.2-0.6-0.5-0.9-0.4l0,0l0,0l-1-0.9l0,0l0,0
		c-0.2-0.6-0.5-1.3-0.8-1.8c-0.2-0.3-0.3-0.6-0.6-0.8c-0.2-0.2-0.5-0.4-0.8-0.2c-1.2,0.5-2.4,1.3-3.5,2c-1.1,0.8-2.2,1.6-3.1,2.5
		c-0.5,0.5-0.9,1-1.3,1.5c-0.4,0.5-0.7,1.1-0.7,1.8l0,0c1.2,2.5,2.7,5,4.5,7.1s4,4,6.7,4.9h-0.1l3.1-4.8l1.5-2.4l0.7-1.2
		C256.9,474.7,257.2,474.3,257.3,473.8z M257.3,473.8c-0.1,0.5-0.4,0.9-0.6,1.3l-0.7,1.2l-1.5,2.5c-1,1.6-2.1,3.2-3.1,4.9l0,0h-0.1
		c-1.4-0.4-2.6-1.1-3.7-2c-1.1-0.9-2.2-1.8-3.1-2.9c-0.9-1.1-1.8-2.2-2.5-3.4c-0.8-1.2-1.5-2.4-2-3.7l0,0l0,0c0-0.7,0.4-1.4,0.8-1.9
		c0.4-0.6,0.9-1.1,1.3-1.5c1-0.9,2-1.8,3.2-2.5c1.1-0.8,2.2-1.5,3.5-2c0.2-0.1,0.4-0.1,0.5,0c0.2,0.1,0.3,0.2,0.4,0.3
		c0.2,0.3,0.4,0.5,0.6,0.8c0.3,0.6,0.6,1.2,0.8,1.9l0,0l1,0.9H252c0.4,0,0.7,0.3,1,0.5s0.5,0.5,0.7,0.8s0.4,0.6,0.7,0.8l0.3,0.4
		l0.2,0.2l0.1,0.1l0,0l0,0l0,0h0.1l0,0c0.4,0.6,0.8,1.2,1.2,1.8L257.3,473.8z"/>
</g>
<g>
	<g>
		<path class="st16" d="M307.3,490c0,0-0.7,3.7,3.9,2.2c5.8-2,5.8-11.7,5.8-11.7s0.1-3.8-2.1-4.2c-2.1-0.4-6.6,4.1-6.7,5.7
			C308.2,483.5,306.2,486.2,307.3,490z"/>
		<path class="st2" d="M307.3,490c-0.1,0.8,0.1,1.9,0.9,2.3s1.7,0.2,2.5,0s1.6-0.7,2.3-1.2c0.6-0.6,1.2-1.2,1.7-2
			c0.9-1.5,1.4-3.2,1.8-4.9c0.2-0.9,0.3-1.7,0.3-2.6c0.1-0.9,0.1-1.7-0.1-2.6c-0.2-0.8-0.4-1.7-1-2.3c-0.3-0.3-0.7-0.4-1.1-0.4
			s-0.8,0.2-1.2,0.4c-1.5,0.8-2.9,2-4,3.3c-0.5,0.7-1.1,1.4-1.1,2.3c-0.2,0.9-0.5,1.7-0.8,2.5C307,486.5,306.8,488.3,307.3,490z
			 M307.3,490c-0.5-1.7-0.4-3.5,0.1-5.2c0.2-0.8,0.6-1.7,0.8-2.5c0-0.9,0.6-1.7,1.1-2.4c1.1-1.4,2.4-2.6,4-3.4
			c0.4-0.2,0.8-0.3,1.3-0.4c0.5,0,0.9,0.1,1.3,0.4c0.7,0.6,1,1.5,1.1,2.4c0.2,0.9,0.1,1.8,0.1,2.6c-0.1,0.9-0.2,1.8-0.4,2.6
			c-0.3,1.7-0.9,3.4-1.8,4.9c-0.5,0.8-1.1,1.4-1.7,2c-0.7,0.5-1.5,1-2.4,1.2c-0.8,0.2-1.8,0.4-2.6,0
			C307.3,491.9,307.2,490.8,307.3,490z"/>
	</g>
</g>
<g class="st22">
	<path class="st21" d="M308.3,481.9c0-1.6,4.6-6,6.7-5.7c0.1,0,0.1,0,0.2,0c-0.6,0-1.2,0.4-1.7,0.8c-1.5,1.1-2.5,2.2-2.7,4.1
		c-0.2,2.8-1.1,5.6-2.2,8.1c-0.5,1.1-0.7,2.2-0.3,3c-1.3-0.6-0.9-2.3-0.9-2.3C306.2,486.2,308.2,483.5,308.3,481.9z"/>
</g>
<g>
	<path class="st23" d="M298,492.1c0,0,0.1,3.5,5,2.1c4.8-1.4,6.4-11.8,6.4-11.8s0.4-2.7-1.8-3c-2.2-0.3-9.2,1-9.3,2.5
		C298.3,483.4,296.9,488.5,298,492.1z"/>
</g>
<g>
	<g>
		<path class="st16" d="M298,492.1c0,0,0.1,3.5,5,2.1c4.8-1.4,6.4-11.8,6.4-11.8s0.4-2.7-1.8-3c-2.2-0.3-9.2,1-9.3,2.5
			C298.3,483.4,296.9,488.5,298,492.1z"/>
		<path class="st2" d="M298,492.1c0.1,0.9,0.7,1.8,1.5,2.1c0.9,0.4,1.8,0.3,2.7,0.1c0.9-0.1,1.7-0.6,2.4-1.2
			c0.7-0.6,1.2-1.4,1.7-2.1c0.9-1.6,1.6-3.4,2.1-5.1c0.2-0.9,0.5-1.8,0.6-2.7c0.2-0.9,0.3-1.8-0.1-2.7c-0.2-0.4-0.5-0.7-0.9-0.9
			c-0.4-0.2-0.9-0.2-1.3-0.2c-0.9,0-1.8,0.1-2.8,0.2c-0.9,0.1-1.8,0.3-2.7,0.6c-0.9,0.3-1.8,0.5-2.5,1.1c-0.2,0.1-0.3,0.3-0.4,0.5
			c0,0.2,0,0.5-0.1,0.7l-0.2,1.4c-0.2,0.9-0.3,1.8-0.4,2.8C297.6,488.4,297.5,490.3,298,492.1z M298,492.1c-0.6-1.8-0.6-3.7-0.4-5.5
			c0.1-0.9,0.2-1.8,0.4-2.8l0.2-1.4c0-0.2,0-0.4,0.1-0.7c0.1-0.3,0.3-0.4,0.4-0.6c0.8-0.6,1.7-0.8,2.6-1.1c0.9-0.3,1.8-0.4,2.7-0.6
			c0.9-0.1,1.8-0.3,2.8-0.3c0.5,0,1,0,1.4,0.2c0.5,0.2,0.8,0.6,1.1,1c0.4,0.9,0.3,1.9,0.1,2.8c-0.2,0.9-0.4,1.8-0.7,2.7
			c-0.5,1.8-1.2,3.6-2.1,5.2c-0.5,0.8-1.1,1.6-1.8,2.2c-0.7,0.6-1.6,1.1-2.5,1.2c-0.9,0.2-1.9,0.2-2.8-0.1
			C298.7,494,298.1,493,298,492.1z"/>
	</g>
</g>
<g class="st20">
	<path class="st14" d="M300.5,480.7c-1.1,0.5-1.3,1.4-1.4,2.6c-0.1,2.9-1.2,5.8-1.2,8.8c-1.1-3.6,0.2-8.6,0.3-10.2
		c0-0.8,1.8-1.5,3.9-2C301.6,480.2,301.1,480.4,300.5,480.7z"/>
</g>
<g>
	<g>
		<path class="st16" d="M288.1,493.3c0,0,1,3.9,5.8,2.4s4.9-12.5,4.9-12.5s0.4-2.8-1.8-3.2c-2.2-0.4-9.2-0.6-9.3,1
			C287.7,482.6,287.6,489,288.1,493.3z"/>
		<path class="st2" d="M288.1,493.3c0.3,0.8,0.8,1.6,1.6,2.1c0.7,0.5,1.6,0.7,2.5,0.6s1.8-0.3,2.5-0.7c0.7-0.5,1.4-1.1,1.8-1.9
			c0.9-1.5,1.4-3.2,1.7-5c0.3-1.7,0.5-3.5,0.5-5.3l0,0l0,0c0.1-1-0.1-2.2-1-2.8c-0.4-0.3-1-0.3-1.5-0.4s-1.1-0.1-1.6-0.1
			c-1.1-0.1-2.2-0.1-3.3,0c-1.1,0.1-2.2,0.1-3.1,0.6c-0.5,0.2-0.4,0.9-0.4,1.4v1.6c0,1.1,0,2.2,0,3.3
			C287.8,488.9,287.9,491.1,288.1,493.3z M288.1,493.3c-0.2-2.2-0.3-4.3-0.4-6.5c0-1.1,0-2.2,0-3.3v-1.6v-0.8c0-0.3,0.2-0.6,0.5-0.7
			c1-0.5,2.1-0.6,3.2-0.7s2.2-0.1,3.3,0c0.5,0,1.1,0.1,1.6,0.1c0.5,0.1,1.1,0.1,1.6,0.4s0.8,0.8,1,1.4c0.2,0.5,0.2,1.1,0.1,1.7l0,0
			c-0.1,1.8-0.2,3.5-0.6,5.3c-0.4,1.7-0.8,3.5-1.8,5c-0.4,0.8-1.1,1.4-1.8,1.9c-0.8,0.4-1.7,0.6-2.6,0.7c-0.9,0-1.8-0.2-2.5-0.6
			C288.9,494.9,288.3,494.1,288.1,493.3z"/>
	</g>
</g>
<path class="st13" d="M342.9,446.7c-0.3-1-0.9-2-2-2.2c-1-0.2-2,0-3,0.3c0.4-0.6,0.9-1.1,1.5-1.4c0.8-0.4,1.6-0.2,2.4,0
	c0.7,0.1,1.2-0.2,1.6-0.7c0.1-0.1,0.2-0.3,0.2-0.4c0,0.6,0,1.3-0.1,2c-0.1,1.2-0.1,3.1-0.3,5.4C343.3,448.6,343.2,447.6,342.9,446.7
	z"/>
<path class="st13" d="M244.6,437.2c0.2,1.1-0.4,1.5-1.1,1.8c1.3-0.1,2.5,0.1,2.8,1.7c0.2,1.6-0.9,2.1-2.1,2c0.5,0.1,1.1,0.1,1.6,0.2
	c0.2,0,0.3,0.3,0.1,0.3c-3.2,1-6.6,1.6-9.3,1.1c1,0.8,4.7,2.9,6.1,2.8c0.2,0,0.2,0.2,0.1,0.3c-0.3,0.4-0.5,0.7-0.7,1.1
	c0.4-0.5,1-0.9,1.5-1.2c0.6-0.3,1.5-0.6,2.1-0.1c0.3,0.3,0.4,0.7,0.5,1c0.3,0.5,0.5,1,0.6,1.5c0.2,0.8-0.2,1.6-0.7,2.2
	c-1.2,1.5-3.4,0.5-5.2,1.1s-2.7,2.9-2.9,4.8c1.4-2.1,4.2-3.3,6.6-3.3c2.2,0,1.7,1.8,0.9,3.1c0.5-0.2,0.9-0.3,1.4-0.2
	c0.1,0,0.1,0.1,0.1,0.2c0.1,0.6,0.1,1.6-0.7,1.8c-0.4,0.1-0.9,0.1-1.4,0.1c-0.1,0-0.3,0-0.6-0.1c1.4,0.5,3.8,0.4,4,2.1
	c0.1,1.1-2,2.5-2.9,2.9c-1.4,0.7-1.3,1.3-2.4,2.4c2-1.2,4.8-3,6.6-1.1c0.5,0.5,1,1.1,1.4,1.7c0.3,0.4,0.8,0.9,0.9,1.5
	c0,0.3,0,0.5-0.2,0.7c-0.4,0.3-0.6,0.6-0.8,1c1.6-0.5,2.7-0.2,3.8,1.2c0,0.1,0,0.2,0,0.2c-0.5,0.4-1,0.6-1.5,0.9
	c-0.8,0.5-1.3,1.2-1.7,2.1c-0.4,1.1-0.5,2.2-0.6,3.3v-0.1c0.5-1.1,1.2-2.1,2.1-2.9c0.8-0.8,1.7-1.2,2.8-1.1c0.7,0.1,1.3,0.3,1.9,0.5
	c0.1,0,0.2,0,0.3,0c-1-1.3-2-2.8-2.9-4.3c-1-1.7-3.3-2.5-4-4.4c-0.6-0.8-1.2-1.6-2.2-1.9c-0.1-0.1-0.2-0.3,0-0.3
	c0.5-0.3,0.4-3.7,0.1-4.8c-0.6-1.7-1-3.6-2.3-5c-0.1-0.1-0.1-0.2,0-0.3c0.6-0.7,0.9-1.8,0.9-3c-0.1-0.8-0.2-1.5-0.2-2.2
	c-0.3-1.2-0.8-2.2-1.6-2.7c-0.1-0.1-0.1-0.2,0-0.3c0.7-0.9,1.2-1.9,1.4-3c0-1.2-1.6-4.2-1.6-4.3c-0.3-1-0.9-1.7-1.7-2.1
	C244.4,436.6,244.5,436.9,244.6,437.2z"/>
<path class="st17" d="M244.6,439.1c-0.7,0.1-1.4-0.2-2.1,0c-0.8,0.2-1.6,0.4-2.3,0.8l0,0c-1.6-1.8-3.8-3-6.3-2.6
	c-0.1,0-0.3,0.2-0.1,0.3c2.6,0.8,5.3,1.8,7,4c0.1,0.1,0.4-0.2,0.3-0.4c-0.2-0.4-0.5-0.7-0.7-1c0.7-0.2,1.3-0.5,2.1-0.6
	c0.6-0.1,1.4,0,2-0.2C244.6,439.3,244.8,439,244.6,439.1z"/>
<path class="st17" d="M245.1,446.2H245c0,0,0,0-0.1,0l0,0c-0.8,0-1.4,0.4-2.1,0.8c-0.9,0.5-2.1-0.2-2.9-0.8l-0.1-0.1
	c-0.6-0.7-1.4-1.1-2.2-1.4c-0.3-0.1-0.7-0.2-1-0.3c-0.4-0.1-0.8,0.1-1.2-0.1c-0.1,0-0.3,0.2-0.2,0.2c0.3,0.2,0.7,0.2,1.1,0.3
	c0.7,0.2,1.4,0.6,2,1c0.9,0.6,2.4,2.1,1.9,3.3c-0.1,0.2,0.2,0.1,0.2,0c0.3-0.5,0.3-1.2,0-1.7c0.3,0.2,0.6,0.3,0.9,0.4
	c0.2,0.1,0.4,0,0.6,0c-0.2,0.3-0.4,0.6-0.4,1c-0.1,0.4,0.4,0,0.5-0.1c0.3-0.5,0.5-1,1-1.3c0.6-0.3,1.1-0.6,1.8-0.8
	C245,446.6,245.3,446.3,245.1,446.2z"/>
<path class="st17" d="M247.5,459.6c-0.4,0-0.7,0-1.1,0c-0.4-0.1-0.9-0.2-1.3-0.4c-0.2-0.1-0.5-0.1-0.7-0.2c0.4-0.3,0.8-0.7,1.2-1
	c0.2-0.1,0.3-0.6,0-0.4c-0.4,0.2-0.7,0.3-1.1,0.5c-0.4,0.2-0.7,0.4-1,0.6c-0.1,0.1-0.2,0.1-0.3,0.1c-0.5-0.7-1.9-1.3-2.7-1
	c-0.1,0-0.4,0.3-0.2,0.4c0.7,0.4,1.7,1.1,2,1.9c0.1,0.2,0.3,1.1,0.2,1.4c-0.3,0.5-0.4,0.8-0.4,1.4c0,0.2,0.3,0.1,0.4,0
	c0.1-0.1,0.2-0.2,0.2-0.3c0-0.1,0-0.2,0-0.2c0.1-0.6,0.5-1.1,0.6-1.7c0.1-0.3,0.1-0.7,0.1-1c0.5,0,1.1,0.2,1.6,0.3
	c0.7,0.2,1.3,0.3,2,0.2C247.4,460.3,247.8,459.6,247.5,459.6z"/>
<path class="st17" d="M252.5,470.1c-0.4,0-0.8-0.2-1.2-0.2c-0.3,0-0.6,0-0.8,0.1c0-0.2-0.2-0.3-0.4-0.5c0.7-0.1,1.3-0.2,1.9-0.3
	c0.1,0,0.5-0.2,0.3-0.2c-0.5-0.2-1.2-0.1-1.7-0.1c-0.6,0-1.2,0-1.8-0.1c-0.3-0.1-1.1-0.3-1.4-0.2c0.1,0,0.1-0.1-0.1-0.1
	c-0.1,0-0.2,0-0.3,0s-0.3,0.1-0.2,0.2c0.4,0.3,0.9,0.5,1.5,0.6c0.3,0.2,0.6,0.3,0.8,0.4s0.3,0.2,0.5,0.3c0.1,0,0.1,0.1,0.1,0.1
	c-0.7,0.2-1.6,0.4-2,0.9l0,0l0,0c-0.1,0.1,0,0.2,0.2,0.1c0.7-0.1,1.5-0.3,2.2-0.5c0.4-0.1,0.8-0.3,1.3-0.4
	C251.8,470.2,252.1,470.2,252.5,470.1C252.4,470.3,252.7,470.1,252.5,470.1z"/>
<g>
	<g>
		<path class="st16" d="M260.8,486.3c0,0-1,3.3-5.9,1.9c-4.8-1.5-3.9-9.3-3.9-9.3s0.9-6,3.8-5.5c2.2,0.3,4.9,1.5,5,3.1
			C259.8,478,262,482.4,260.8,486.3z"/>
		<path class="st2" d="M260.8,486.3c-0.3,0.8-0.9,1.5-1.7,1.9c-0.8,0.4-1.7,0.4-2.5,0.4c-0.9-0.1-1.7-0.3-2.5-0.7
			c-0.8-0.4-1.4-1.1-1.9-1.8c-0.9-1.5-1.2-3.3-1.3-5c0-0.9-0.1-1.7,0.1-2.6c0.2-0.9,0.4-1.7,0.7-2.5s0.7-1.6,1.4-2.2
			c0.3-0.3,0.8-0.5,1.2-0.6c0.5,0,0.9,0.1,1.3,0.2c0.8,0.2,1.7,0.5,2.4,0.9c0.7,0.4,1.5,1,1.7,1.9c0,0.9,0.3,1.7,0.5,2.5
			s0.4,1.7,0.6,2.5C261.2,482.8,261.3,484.6,260.8,486.3z M260.8,486.3c0.5-1.7,0.4-3.4,0-5.1c-0.2-0.8-0.4-1.7-0.6-2.5
			s-0.5-1.7-0.6-2.5c-0.2-0.8-1-1.4-1.7-1.8c-0.8-0.4-1.6-0.7-2.4-0.9c-0.4-0.1-0.8-0.2-1.2-0.2c-0.4,0.1-0.8,0.2-1.1,0.5
			c-0.6,0.6-1,1.3-1.3,2.1c-0.3,0.8-0.5,1.6-0.7,2.5c-0.2,0.8-0.1,1.7-0.1,2.6c0.1,1.7,0.4,3.4,1.2,4.9c0.5,0.7,1.1,1.4,1.8,1.8
			c0.8,0.4,1.6,0.6,2.5,0.7c0.8,0.1,1.7,0,2.5-0.3C259.9,487.7,260.5,487.1,260.8,486.3z"/>
	</g>
</g>
<g class="st20">
	<path class="st21" d="M259.8,476.4c0-1.2-1.5-2.1-3.1-2.7c0.6,0.3,1.3,0.7,1.7,1.2c1,1.3-0.2,3.1-0.3,4.5c-0.1,2.8,1.5,5.7,1.4,8.4
		c1-0.7,1.4-1.6,1.4-1.6C262,482.4,259.8,478,259.8,476.4z"/>
</g>
<g>
	<g>
		<path class="st16" d="M268.4,490c0,0,0.7,3.7-3.9,2.2c-5.8-2-5.8-11.7-5.8-11.7s-0.1-3.8,2.1-4.2c2.1-0.4,6.6,4.1,6.7,5.7
			C267.5,483.5,269.5,486.2,268.4,490z"/>
		<path class="st2" d="M268.4,490c0.1,0.8,0,1.9-0.9,2.3c-0.8,0.4-1.8,0.2-2.6,0c-0.9-0.2-1.6-0.7-2.4-1.2c-0.7-0.6-1.3-1.2-1.7-2
			c-0.9-1.5-1.5-3.2-1.8-4.9c-0.2-0.9-0.3-1.7-0.4-2.6s-0.1-1.8,0.1-2.6c0.2-0.9,0.4-1.8,1.1-2.4c0.4-0.3,0.8-0.5,1.3-0.4
			c0.5,0,0.9,0.2,1.3,0.4c1.6,0.8,2.9,2,4,3.4c0.5,0.7,1.1,1.5,1.1,2.4c0.2,0.8,0.5,1.7,0.8,2.5C268.8,486.5,269,488.3,268.4,490z
			 M268.4,490c0.5-1.7,0.3-3.5-0.2-5.2c-0.2-0.8-0.6-1.6-0.8-2.5c0-0.9-0.6-1.6-1.1-2.3c-1.1-1.3-2.4-2.5-4-3.3
			c-0.4-0.2-0.8-0.3-1.2-0.4c-0.4,0-0.8,0.1-1.1,0.4c-0.6,0.6-0.9,1.4-1,2.3c-0.2,0.9-0.2,1.7-0.1,2.6s0.2,1.7,0.3,2.6
			c0.3,1.7,0.9,3.4,1.8,4.9c0.4,0.8,1,1.4,1.7,2c0.7,0.5,1.5,0.9,2.3,1.2c0.8,0.2,1.7,0.4,2.5,0C268.3,491.8,268.5,490.8,268.4,490z
			"/>
	</g>
</g>
<g class="st22">
	<path class="st16" d="M267.5,481.9c0-1.6-4.6-6-6.7-5.7c-0.1,0-0.1,0-0.2,0c0.6,0,1.2,0.4,1.7,0.8c1.5,1.1,2.5,2.2,2.7,4.1
		c0.2,2.8,1.1,5.6,2.2,8.1c0.5,1.1,0.7,2.2,0.3,3c1.3-0.6,0.9-2.3,0.9-2.3C269.5,486.2,267.5,483.5,267.5,481.9z"/>
</g>
<g>
	<path class="st23" d="M277.7,492.1c0,0-0.1,3.5-5,2.1c-4.8-1.4-6.4-11.8-6.4-11.8s-0.4-2.7,1.8-3c2.2-0.3,9.2,1,9.3,2.5
		C277.4,483.4,278.8,488.5,277.7,492.1z"/>
</g>
<g>
	<g>
		<path class="st16" d="M277.7,492.1c0,0-0.1,3.5-5,2.1c-4.8-1.4-6.4-11.8-6.4-11.8s-0.4-2.7,1.8-3c2.2-0.3,9.2,1,9.3,2.5
			C277.4,483.4,278.8,488.5,277.7,492.1z"/>
		<path class="st2" d="M277.7,492.1c-0.1,0.9-0.6,1.8-1.5,2.2c-0.9,0.4-1.9,0.3-2.8,0.1c-0.9-0.1-1.8-0.6-2.5-1.2s-1.3-1.4-1.8-2.2
			c-1-1.6-1.6-3.4-2.1-5.2c-0.3-0.9-0.5-1.8-0.7-2.7c-0.2-0.9-0.3-1.9,0.1-2.8c0.2-0.4,0.6-0.8,1.1-1s0.9-0.2,1.4-0.2
			c0.9,0,1.9,0.1,2.8,0.3c0.9,0.1,1.8,0.3,2.7,0.6c0.9,0.3,1.8,0.5,2.6,1.1c0.2,0.1,0.4,0.3,0.4,0.6c0,0.3,0,0.5,0.1,0.7l0.2,1.4
			c0.1,0.9,0.3,1.8,0.4,2.8C278.2,488.4,278.3,490.3,277.7,492.1z M277.7,492.1c0.5-1.8,0.5-3.7,0.3-5.5c-0.1-0.9-0.2-1.8-0.4-2.8
			l-0.2-1.4c0-0.2,0-0.5-0.1-0.7c0-0.2-0.2-0.4-0.4-0.5c-0.7-0.5-1.6-0.8-2.5-1.1c-0.9-0.2-1.8-0.4-2.7-0.6
			c-0.9-0.1-1.8-0.2-2.8-0.2c-0.5,0-0.9,0-1.3,0.2s-0.7,0.5-0.9,0.9c-0.4,0.8-0.3,1.8-0.1,2.7c0.2,0.9,0.4,1.8,0.6,2.7
			c0.5,1.8,1.1,3.5,2.1,5.1c0.5,0.8,1,1.5,1.7,2.1s1.5,1,2.4,1.2s1.9,0.3,2.7-0.1C277,493.9,277.6,493,277.7,492.1z"/>
	</g>
</g>
<g class="st20">
	<path class="st14" d="M275.2,480.7c1.1,0.5,1.3,1.4,1.4,2.6c0.1,2.9,1.2,5.8,1.2,8.8c1.1-3.6-0.2-8.6-0.3-10.2c0-0.8-1.8-1.5-3.9-2
		C274.1,480.2,274.6,480.4,275.2,480.7z"/>
</g>
<g class="st24">
	<path class="st16" d="M276.1,490.8c0,0-0.1,2.9-4.1,1.7c-4-1.1-5.3-9.8-5.3-9.8s-0.3-2.2,1.5-2.5s7.7,0.8,7.7,2.1
		C275.9,483.5,277.1,487.8,276.1,490.8z"/>
</g>
<g>
	<g>
		<path class="st16" d="M287.6,493.3c0,0-1,3.9-5.8,2.4s-4.9-12.5-4.9-12.5s-0.4-2.8,1.8-3.2c2.2-0.4,9.2-0.6,9.3,1
			C288,482.6,288.1,489,287.6,493.3z"/>
		<path class="st2" d="M287.6,493.3c-0.3,0.8-0.8,1.6-1.5,2.1s-1.7,0.7-2.5,0.6c-0.9-0.1-1.8-0.2-2.6-0.7c-0.7-0.5-1.4-1.1-1.8-1.9
			c-1-1.5-1.4-3.3-1.8-5c-0.3-1.7-0.5-3.5-0.6-5.3l0,0c-0.1-0.6,0-1.1,0.1-1.7c0.1-0.5,0.5-1.1,1-1.4s1.1-0.3,1.6-0.4
			s1.1-0.1,1.6-0.1c1.1,0,2.2-0.1,3.3,0c1.1,0.1,2.2,0.1,3.2,0.7c0.2,0.1,0.5,0.4,0.5,0.7v0.8v1.6c0,1.1,0,2.2,0,3.3
			C287.9,488.9,287.9,491.1,287.6,493.3z M287.6,493.3c0.2-2.2,0.3-4.3,0.3-6.5c0-1.1,0-2.2,0-3.3v-1.6c0-0.5,0.1-1.2-0.4-1.4
			c-0.9-0.5-2.1-0.5-3.1-0.6c-1.1-0.1-2.2,0-3.3,0c-0.5,0-1.1,0.1-1.6,0.1c-0.5,0.1-1.1,0.1-1.5,0.4c-0.9,0.6-1.1,1.8-1,2.8l0,0l0,0
			c0,1.8,0.2,3.5,0.5,5.3c0.3,1.7,0.8,3.5,1.7,5c0.4,0.8,1.1,1.4,1.8,1.9c0.8,0.4,1.7,0.6,2.5,0.7c0.9,0.1,1.8-0.1,2.5-0.6
			C286.8,494.9,287.4,494.1,287.6,493.3z"/>
	</g>
</g>
<path class="st25" d="M254.4,474.4c0,0-0.6-0.7-1.6,0.5c-1.1,1.2-1.4,4.9-1.1,7.9c0.4,2.9,2.3,4.5,3.8,4.7
	C257.1,487.5,257.8,475.3,254.4,474.4z"/>
<g>
	<g>
		<defs>
			<polygon id="SVGID_18_" points="1,1 2,1 1,2 			"/>
		</defs>
		<defs>
			<polygon id="SVGID_19_" points="-1,-1 -2,-1 -1,-2 			"/>
		</defs>
		<clipPath id="SVGID_20_">
			<use xlink:href="#SVGID_18_"  style="overflow:visible;"/>
		</clipPath>
		<clipPath id="SVGID_21_" class="st26">
			<use xlink:href="#SVGID_19_"  style="overflow:visible;"/>
		</clipPath>
		
			<linearGradient id="SVGID_22_" gradientUnits="userSpaceOnUse" x1="271.6648" y1="439.5723" x2="271.7946" y2="430.3419" gradientTransform="matrix(1 0 0 -1 0 841.8898)">
			<stop  offset="0" style="stop-color:#FFFFFF"/>
			<stop  offset="0.5363" style="stop-color:#FFFFFF"/>
			<stop  offset="1" style="stop-color:#000000"/>
		</linearGradient>
		<path class="st27" d="M258,413c0,0,6.1-5.8,16.1-5.5c9.9,0.3,11.5,6.3,11.1,10.6c0,0,2-4.4-2.3-8.9C278.5,404.8,265.9,405,258,413
			z"/>
	</g>
</g>
<path class="st11" d="M258,413c0,0,6.1-5.8,16.1-5.5c9.9,0.3,11.5,6.3,11.1,10.6c0,0,2-4.4-2.3-8.9C278.5,404.8,265.9,405,258,413z"
	/>
<g>
	<g>
		<defs>
			<polygon id="SVGID_23_" points="1,1 2,1 1,2 			"/>
		</defs>
		<defs>
			<polygon id="SVGID_24_" points="-1,-1 -2,-1 -1,-2 			"/>
		</defs>
		<clipPath id="SVGID_25_">
			<use xlink:href="#SVGID_23_"  style="overflow:visible;"/>
		</clipPath>
		<clipPath id="SVGID_26_" class="st28">
			<use xlink:href="#SVGID_24_"  style="overflow:visible;"/>
		</clipPath>
		
			<linearGradient id="SVGID_27_" gradientUnits="userSpaceOnUse" x1="283.2235" y1="411.7051" x2="288.2939" y2="419.5057" gradientTransform="matrix(1 0 0 -1 0 841.8898)">
			<stop  offset="0" style="stop-color:#FFFFFF"/>
			<stop  offset="0.5363" style="stop-color:#FFFFFF"/>
			<stop  offset="1" style="stop-color:#000000"/>
		</linearGradient>
		<path class="st29" d="M285.6,424.5c0,0-0.4,3.6,2.7,3.9c0,0-2.2,1.2-3.2-1.3s0-4.5,0-5.6C285.2,420.5,285.7,421.3,285.6,424.5z"/>
	</g>
</g>
<path class="st11" d="M285.3,426.7c0.3,0.3,0.8,0.8,1.5,1.2c0.6,0.3,1.1,0.5,1.5,0.6c-0.3,0.1-1.1,0.5-2,0.2c-1-0.3-1.7-1.2-2-2
	c-0.4-1.3,0.4-1.9,0.8-5.1c0-0.2,0.1-0.4,0.1-0.4C285.4,421.1,285.4,424.1,285.3,426.7z"/>
<g>
	<g>
		<defs>
			<polygon id="SVGID_28_" points="1,1 2,1 1,2 			"/>
		</defs>
		<defs>
			<polygon id="SVGID_29_" points="-1,-1 -2,-1 -1,-2 			"/>
		</defs>
		<clipPath id="SVGID_30_">
			<use xlink:href="#SVGID_28_"  style="overflow:visible;"/>
		</clipPath>
		<clipPath id="SVGID_31_" class="st30">
			<use xlink:href="#SVGID_29_"  style="overflow:visible;"/>
		</clipPath>
		
			<linearGradient id="SVGID_32_" gradientUnits="userSpaceOnUse" x1="304.7129" y1="439.5121" x2="304.4531" y2="431.1917" gradientTransform="matrix(1 0 0 -1 0 841.8898)">
			<stop  offset="0" style="stop-color:#FFFFFF"/>
			<stop  offset="0.5363" style="stop-color:#FFFFFF"/>
			<stop  offset="1" style="stop-color:#000000"/>
		</linearGradient>
		<path class="st31" d="M290.9,413.2c0,0,2.7-7.2,18-5.6c0,0,5,0.7,9,4c0,0-3.3-5.4-11.3-5.4C298.7,406,291.9,408.5,290.9,413.2z"/>
	</g>
</g>
<path class="st11" d="M290.9,413.2c0,0,2.7-7.2,18-5.6c0,0,5,0.7,9,4c0,0-3.3-5.4-11.3-5.4C298.7,406,291.9,408.5,290.9,413.2z"/>
<g>
	<g>
		<defs>
			<polygon id="SVGID_33_" points="1,1 2,1 1,2 			"/>
		</defs>
		<defs>
			<polygon id="SVGID_34_" points="-1,-1 -2,-1 -1,-2 			"/>
		</defs>
		<clipPath id="SVGID_35_">
			<use xlink:href="#SVGID_33_"  style="overflow:visible;"/>
		</clipPath>
		<clipPath id="SVGID_36_" class="st32">
			<use xlink:href="#SVGID_34_"  style="overflow:visible;"/>
		</clipPath>
		
			<linearGradient id="SVGID_37_" gradientUnits="userSpaceOnUse" x1="241.994" y1="409.944" x2="232.0478" y2="409.554" gradientTransform="matrix(1 0 0 -1 0 841.8898)">
			<stop  offset="0" style="stop-color:#FFFFFF"/>
			<stop  offset="0.5363" style="stop-color:#FFFFFF"/>
			<stop  offset="1" style="stop-color:#000000"/>
		</linearGradient>
		<path class="st33" d="M233.2,420.1c0,0-0.9,20.7,0.5,25.8c1.4,5.1,9.5,3.5,9.9-7.6s1.8-13,2.4-16.7
			C246.5,417.8,234.9,411,233.2,420.1z"/>
	</g>
</g>
<g>
	<g>
		<defs>
			<polygon id="SVGID_38_" points="1,1 2,1 1,2 			"/>
		</defs>
		<defs>
			<polygon id="SVGID_39_" points="-1,-1 -2,-1 -1,-2 			"/>
		</defs>
		<clipPath id="SVGID_40_">
			<use xlink:href="#SVGID_38_"  style="overflow:visible;"/>
		</clipPath>
		<clipPath id="SVGID_41_" class="st34">
			<use xlink:href="#SVGID_39_"  style="overflow:visible;"/>
		</clipPath>
		
			<linearGradient id="SVGID_42_" gradientUnits="userSpaceOnUse" x1="-29.291" y1="409.9433" x2="-39.2371" y2="409.5533" gradientTransform="matrix(-1 0 0 -1 304.6328 841.8898)">
			<stop  offset="0" style="stop-color:#FFFFFF"/>
			<stop  offset="0.5363" style="stop-color:#FFFFFF"/>
			<stop  offset="1" style="stop-color:#000000"/>
		</linearGradient>
		<path class="st35" d="M342.7,420.1c0,0,0.9,20.7-0.5,25.8c-1.4,5.1-9.5,3.5-9.9-7.6s-1.8-13-2.4-16.7
			C329.4,417.8,341,411,342.7,420.1z"/>
	</g>
</g>
<path class="st15" d="M345.8,393.3c-1-9.3-12.5-38.4-29.6-41.3c-14.8-2.5-25.5-3.8-28.1-4.1v-0.1c0,0-0.1,0-0.3,0
	c-0.2,0-0.3,0-0.3,0v0.1c-2.5,0.3-12.5,1.6-27.3,4.1c-17.2,2.9-28.6,32-29.6,41.3s3.9,28.1,3.9,28.1l2.6,0.1c0,0,2.5-10.3,4.3-20.1
	c1.7-9.8,7.8-17.3,19.1-26.5c10.5-8.5,25.3-8,27.4-7.8l0,0c0,0,0,0,0.1,0s0.1,0,0.1,0l0,0c2.2-0.1,17.4-0.7,27.9,7.8
	c11.3,9.2,17.4,16.7,19.1,26.5s4.3,20.1,4.3,20.1l2.6-0.1C341.9,421.4,346.8,402.6,345.8,393.3z"/>
<path class="st12" d="M343.2,414c-0.1-1.4-0.1-2.8-0.5-4.1c-0.4-1.5-1-2.9-1.3-4.4c-0.2-1.5-0.3-3.1-0.8-4.4
	c-0.5-1.2-1.4-2.1-1.9-3.4c-0.4-1.2-0.4-2.5-1.1-3.6c-0.9-1.5-2.1-2.7-2.7-4.3c-0.1,0.8-0.2,1.7-0.6,2.5c-0.1,0.2-0.4,0-0.3-0.2
	c0.3-0.6,0.4-1.2,0.5-1.9c-0.1,0-0.2-0.1-0.1-0.2c0.7-2.6-1.1-4.6-2.3-6.7c-1.2-2.2-2-4.4-3.7-6.3c-0.9-1-2-2-3.2-2.7
	c-0.9-0.5-2-0.8-2.8-1.4c-1.9-1.5-3.2-4.1-6-3.3c0.3,1,0.7,1.8,1.3,2.6c0.2,0.2-0.2,0.4-0.3,0.2c-0.7-0.9-1.1-1.8-1.4-2.9
	c0-0.1,0-0.2,0.1-0.2s0.1,0,0.2-0.1c-1.4-0.1-2.8,1.1-4.2,0.3c-1.7-0.9-2.3-2.7-3.7-3.9c-1-0.9-2.1-1.4-3.4-0.9
	c-0.8,0.3-1.7,0.9-2.6,0.9c-1.5-0.1-2.3-1.9-3.3-2.9c-1.8-1.8-4-2.8-6.5-1.5c-0.9,0.5-1.6,1-2.4,1.6c-0.5,0.3-0.9,0.6-1.5,0.8
	c-1.7,0.3-3.1-1.6-4.6-2.1c-1.4-0.5-2.9-0.6-4.3-0.2l-0.1,0.1c-0.4,0.1-0.8,0.3-1.1,0.5c-0.1,0-0.1,0.1-0.2,0.1
	c-0.2,0.2-0.5,0.3-0.7,0.5c-0.1,0.1-0.2,0.1-0.2,0c-0.3,0.2-0.5,0.4-0.7,0.7c-0.4,0.4-0.6,1-1,1.4c-0.6,0.5-1.3,0.7-2.1,0.5
	c-1.1-0.4-1.9-1.2-3.2-1.2c-1.1,0-2.1,0.5-2.9,1.1c-1.7,1.2-3.1,3-5.1,3.6c-1.3,0.4-2.7,0.4-4,0.8c-1.6,0.5-2.4,1.5-3.6,2.6
	c-1,0.9-1.9,1.2-3.2,1.6c-1.4,0.4-2.5,1.2-3.4,2.3c-1.7,1.9-2.7,4-3.8,6.2c-0.2,0.5-0.5,1.1-0.7,1.6c0,0,0,0.1,0,0.2
	c-0.3,1.4-1.4,2.3-2.1,3.5c-0.8,1.4-1,3.1-1.6,4.6c-1.2,3.1-3.1,5.9-4.1,9.1c-0.5,1.8-0.6,3.6-1.1,5.4s-1,3.6-1.2,5.5
	c-0.3,3.2,0,6.3,0.8,9.4l2.3,0.1c0,0,2.5-10.3,4.3-20.1c1.7-9.8,7.8-17.3,19.1-26.5c10.5-8.5,25.3-8,27.4-7.8l0,0c0,0,0,0,0.1,0
	s0.1,0,0.1,0l0,0c2.2-0.1,17.4-0.7,27.9,7.8c11.3,9.2,17.4,16.7,19.1,26.5s4.3,20.1,4.3,20.1l2.6-0.1c0,0,0.7-2.7,1.5-6.5
	C343.3,414.6,343.3,414.3,343.2,414z"/>
<g>
	<path class="st16" d="M243.6,403.4c-1.5-0.8-4.5-2.4-5.5-0.2v0.1c-1.6,1.6-2.8,3.1-3.6,5.5c-1,2.7-0.9,5.9-0.5,8.8
		c0.1,1,0.3,2.8,0.7,4.4c0.6,0.9,1.4,1.8,2.4,2.1c1.2,0.4,2.5,0.3,3.8,0.1c1.1-0.2,2.3-0.2,3.4-0.4h0.1c0.7-0.3,1.4-0.7,2.1-1.2
		c0.4-0.6,0.8-1.3,1.1-2c0.8-2.2,0.6-4.6,0.6-6.9c0-1.8-0.1-3.6-0.1-5.4C247.4,406,245.8,404.5,243.6,403.4z"/>
	<path class="st2" d="M243.6,403.4c-0.9-0.5-1.9-1-2.9-1.2c-0.5-0.1-1.1-0.2-1.5,0c-0.5,0.2-0.8,0.6-1,1.1l0,0l0,0
		c-1.2,1.2-2.3,2.5-3,4s-1.2,3.1-1.3,4.8c-0.1,1.7-0.1,3.3,0.1,5c0.2,1.7,0.3,3.3,0.8,4.9l0,0c0.5,0.7,1.1,1.4,1.8,1.8
		s1.6,0.5,2.5,0.5s1.7-0.2,2.6-0.3l2.6-0.3l0,0c0.8-0.3,1.6-0.7,2.2-1.2l0,0c0.7-1,1.2-2.1,1.4-3.3c0.2-1.2,0.3-2.4,0.3-3.6
		l-0.1-7.3l0,0c-0.3-1.1-0.9-2.1-1.7-2.9C245.5,404.5,244.6,403.9,243.6,403.4z M243.6,403.4c1,0.5,2,1.1,2.8,1.9s1.4,1.8,1.7,2.9
		l0,0l0,0l0.2,7.3c0,1.2,0,2.4-0.2,3.7c-0.2,1.2-0.7,2.4-1.4,3.4l0,0l0,0c-0.7,0.5-1.5,0.9-2.3,1.2l0,0l0,0l-2.6,0.3
		c-0.9,0.1-1.7,0.3-2.6,0.3c-0.9,0-1.8-0.1-2.6-0.5c-0.8-0.5-1.4-1.2-1.9-1.9l0,0l0,0c-0.4-1.6-0.6-3.3-0.8-5s-0.2-3.3-0.1-5
		c0.2-1.7,0.6-3.3,1.3-4.8s1.8-2.8,3-4l0,0c0.2-0.5,0.6-0.9,1.1-1.1s1.1-0.1,1.6,0C241.7,402.4,242.7,402.9,243.6,403.4z"/>
</g>
<path class="st36" d="M248.1,413.6c0-1.8-0.1-3.6-0.1-5.4c-0.7-2.3-2.3-3.8-4.4-4.9c-1.5-0.8-4.5-2.4-5.5-0.2v0.1
	c-1.6,1.5-2.8,3.1-3.6,5.4c0,1.2,0.1,2.4,0.5,3.5c0.8,2.2,2.6,2.9,4.7,3.3c2,0.4,3.9,0,5.8-0.4c0.8-0.1,1.8-0.2,2,0.7
	c0,0.1,0,0.2-0.1,0.2c-0.8,0.4-1.7,0.4-2.6,0.6c-1.1,0.3-2.1,0.9-3,1.5c-1.2,0.8-2.5,1.5-4,1.6c1.4,0.2,2.8-0.5,4.1-1
	c1.5-0.6,3-1.2,4.6-0.9c0.1,0,0.2,0.2,0.1,0.3c-0.2,0.5-0.5,1-1,1.1c-0.4,0.1-1.6,0.1-1.6,0.6c0,1.1,0,2.2-0.8,3.1
	c-0.4,0.5-1,0.8-1.6,1.1c0.8-0.1,1.7-0.2,2.5-0.3h0.1c0.7-0.3,1.4-0.7,2.1-1.2c0.4-0.6,0.8-1.3,1.1-2
	C248.3,418.3,248.2,415.9,248.1,413.6z"/>
<path class="st16" d="M246.8,394.8c-1.4-1-4.1-3.1-5.4-1.1c0,0,0,0.1-0.1,0.1c-1.8,1.3-3.2,2.7-4.4,4.9c-1.4,2.5-1.7,5.7-1.9,8.6
	c0,1-0.2,2.8,0,4.5c0.5,1,1.1,2,2.1,2.5c1.2,0.6,2.5,0.7,3.7,0.7c1.1,0,2.3,0.1,3.4,0.1h0.1c0.7-0.2,1.5-0.4,2.3-0.8
	c0.5-0.5,1-1.1,1.4-1.8c1.1-2,1.3-4.4,1.6-6.7c0.2-1.8,0.4-3.6,0.7-5.4C250.2,398,248.8,396.3,246.8,394.8z"/>
<g>
	<path class="st16" d="M246.8,394.8c-1.4-1-4.1-3.1-5.4-1.1c0,0,0,0.1-0.1,0.1c-1.8,1.3-3.2,2.7-4.4,4.9c-1.4,2.5-1.7,5.7-1.9,8.6
		c0,1-0.2,2.8,0,4.5c0.5,1,1.1,2,2.1,2.5c1.2,0.6,2.5,0.7,3.7,0.7c1.1,0,2.3,0.1,3.4,0.1h0.1c0.7-0.2,1.5-0.4,2.3-0.8
		c0.5-0.5,1-1.1,1.4-1.8c1.1-2,1.3-4.4,1.6-6.7c0.2-1.8,0.4-3.6,0.7-5.4C250.2,398,248.8,396.3,246.8,394.8z"/>
	<path class="st2" d="M246.8,394.8c-0.9-0.6-1.7-1.3-2.7-1.7c-0.5-0.2-1-0.3-1.5-0.2c-0.5,0.1-0.9,0.5-1.2,0.9l0,0l0,0
		c-1.4,1-2.6,2.1-3.5,3.5c-1,1.4-1.6,2.9-2,4.5s-0.6,3.3-0.6,4.9c-0.1,1.7-0.2,3.3,0,5l0,0c0.4,0.8,0.9,1.5,1.5,2.1
		c0.7,0.5,1.5,0.8,2.4,0.9s1.7,0.1,2.6,0.1l2.6,0.1l0,0c0.8-0.2,1.6-0.4,2.4-0.8l0,0c0.9-0.9,1.5-1.9,1.9-3s0.6-2.3,0.8-3.5l1-7.2
		l0,0c-0.1-1.1-0.6-2.2-1.2-3.1C248.6,396.3,247.8,395.5,246.8,394.8z M246.8,394.8c0.9,0.7,1.8,1.4,2.4,2.4c0.7,0.9,1.1,2,1.2,3.1
		l0,0l0,0l-0.9,7.2c-0.2,1.2-0.4,2.4-0.8,3.6c-0.4,1.2-1.1,2.2-1.9,3.1l0,0l0,0c-0.8,0.4-1.6,0.7-2.4,0.9l0,0l0,0l-2.6-0.1
		c-0.9,0-1.8,0-2.6-0.1c-0.9-0.1-1.8-0.4-2.5-0.9c-0.7-0.6-1.2-1.4-1.6-2.1l0,0l0,0c-0.2-1.7-0.1-3.3,0-5s0.3-3.3,0.7-5
		c0.4-1.6,1.1-3.2,2.1-4.5c1-1.4,2.2-2.5,3.6-3.5l0,0c0.3-0.5,0.7-0.8,1.2-0.9s1.1,0.1,1.5,0.3C245.1,393.6,246,394.2,246.8,394.8z"
		/>
</g>
<path class="st36" d="M246.8,394.8c-1.4-1-4.1-3.1-5.4-1.1c0,0,0,0.1-0.1,0.1c-1.8,1.3-3.2,2.7-4.4,4.9c-0.1,0.2-0.2,0.4-0.3,0.6
	c0.1-0.1,0.2-0.1,0.2-0.2c0.1-0.1,0.3,0,0.3,0.2c0,2.5-1.3,6.1,1.2,7.8c1.3,0.9,2.9,1.1,4.4,1.1c0.6,0,1.3,0,1.9-0.1
	c0.4-0.1,0.9-0.2,1.3-0.2c0.9,0,0.9,0.7,0.7,1.4c-0.2,0.9,0.2,1.5,0.5,2.3c0.1,0.3,0.2,0.6,0.2,0.9c0,0.2,0,0.6,0,1.1
	c0.3-0.4,0.5-0.7,0.8-1.1c1.1-2,1.3-4.4,1.6-6.7c0.2-1.8,0.4-3.6,0.7-5.4C250.2,398,248.8,396.3,246.8,394.8z"/>
<path class="st16" d="M248,390.8c-1.2-0.8-3.6-2.6-4.8-0.9c0,0,0,0.1-0.1,0.1c-1.6,1.1-2.9,2.2-4,4c-1.2,2.1-1.6,4.7-1.7,7.1
	c-0.1,1.4-0.3,3,0.5,4.3c0.7,1.2,1.9,1.7,3.2,1.9c2.5,0.4,5.8,0.5,7.6-1.6c1.4-1.6,1.5-4,1.8-6c0.2-1.5,0.4-3,0.6-4.4
	C250.9,393.4,249.7,392,248,390.8z"/>
<g>
	<path class="st16" d="M248,390.8c-1.2-0.8-3.6-2.6-4.8-0.9c0,0,0,0.1-0.1,0.1c-1.6,1.1-2.9,2.2-4,4c-1.2,2.1-1.6,4.7-1.7,7.1
		c-0.1,1.4-0.3,3,0.5,4.3c0.7,1.2,1.9,1.7,3.2,1.9c2.5,0.4,5.8,0.5,7.6-1.6c1.4-1.6,1.5-4,1.8-6c0.2-1.5,0.4-3,0.6-4.4
		C250.9,393.4,249.7,392,248,390.8z"/>
	<path class="st2" d="M248,390.8c-0.8-0.5-1.5-1-2.4-1.4c-0.4-0.2-0.9-0.3-1.3-0.2c-0.5,0.1-0.8,0.4-1.1,0.8l0,0l0,0
		c-1.4,0.9-2.7,2-3.6,3.5c-0.9,1.4-1.4,3-1.7,4.7c-0.3,1.6-0.3,3.3-0.4,5c0,0.8,0.2,1.7,0.6,2.3c0.4,0.7,1.2,1.2,1.9,1.4
		c0.8,0.3,1.6,0.4,2.4,0.5c0.8,0.1,1.7,0.1,2.5,0c1.6-0.1,3.3-0.9,4.2-2.3s1.1-3.1,1.3-4.8l0.7-5l0,0c-0.1-0.9-0.5-1.9-1.1-2.6
		C249.5,391.9,248.8,391.3,248,390.8z M248,390.8c0.8,0.5,1.6,1.1,2.1,1.9c0.6,0.8,1,1.7,1.1,2.6l0,0l0,0l-0.7,5
		c-0.2,1.6-0.4,3.4-1.3,4.9c-0.9,1.5-2.6,2.3-4.3,2.4c-0.8,0.1-1.7,0.1-2.5,0s-1.7-0.2-2.5-0.5s-1.6-0.8-2-1.5
		c-0.5-0.7-0.6-1.6-0.6-2.5c0-1.7,0.1-3.4,0.4-5c0.3-1.7,0.8-3.3,1.8-4.7c0.9-1.4,2.2-2.5,3.6-3.4l0,0c0.3-0.4,0.6-0.7,1.1-0.8
		c0.5-0.1,0.9,0,1.4,0.2C246.4,389.7,247.2,390.3,248,390.8z"/>
</g>
<path class="st36" d="M248,390.8c-1.2-0.8-3.6-2.6-4.8-0.9c0,0,0,0.1-0.1,0.1c-1.4,0.9-2.6,1.9-3.5,3.3l0.1-0.1
	c0.1-0.1,0.3,0,0.3,0.1c0.4,2.2-0.8,5.2,1.3,6.9c1.7,1.4,4.5,1.7,6.5,1.3c1-0.2,2.2-0.4,2.3,1c0,0.2,0,0.3,0,0.5
	c0.3-1.1,0.4-2.3,0.5-3.3c0.2-1.5,0.4-3,0.6-4.4C250.9,393.4,249.7,392,248,390.8z"/>
<g>
	<path class="st16" d="M250.6,384.2c-1.2-0.9-3.3-2.7-4.5-1c0,0,0,0.1-0.1,0.1c-1.6,1-2.8,2.1-3.8,3.9c-1.2,2.1-1.6,4.7-1.8,7.1
		c-0.1,0.9-0.2,2.3-0.1,3.7c0.4,0.8,0.9,1.6,1.7,2.1c1,0.5,2.1,0.6,3.1,0.6s1.9,0.2,2.9,0.2h0.1c0.6-0.1,1.3-0.3,1.9-0.6
		c0.5-0.4,0.9-0.9,1.2-1.5c1-1.6,1.2-3.6,1.5-5.5c0.2-1.5,0.5-2.9,0.7-4.4C253.4,386.9,252.2,385.4,250.6,384.2z"/>
	<path class="st2" d="M250.6,384.2c-0.7-0.5-1.4-1.1-2.2-1.4c-0.4-0.2-0.8-0.3-1.3-0.2c-0.4,0.1-0.8,0.4-1,0.7l0,0l0,0
		c-1.2,0.7-2.2,1.6-3.1,2.8c-0.8,1.1-1.4,2.4-1.8,3.7c-0.4,1.3-0.6,2.7-0.7,4.1c-0.1,1.4-0.2,2.8-0.1,4.1l0,0
		c0.3,0.7,0.7,1.3,1.2,1.7c0.5,0.4,1.3,0.7,2,0.8c0.7,0.1,1.5,0.1,2.2,0.2l2.2,0.2l0,0c0.7-0.1,1.4-0.3,2-0.6l0,0
		c0.7-0.7,1.3-1.5,1.7-2.4s0.6-1.9,0.8-2.9l1-6l0,0c-0.1-0.9-0.4-1.8-0.9-2.6C252.1,385.4,251.4,384.7,250.6,384.2z M250.6,384.2
		c0.8,0.6,1.4,1.2,2,2c0.5,0.8,0.9,1.7,1,2.6l0,0l0,0l-1,6c-0.2,1-0.4,2-0.8,2.9c-0.4,0.9-1,1.8-1.7,2.5l0,0l0,0
		c-0.7,0.3-1.4,0.5-2.1,0.6l0,0l0,0l-2.2-0.1c-0.7-0.1-1.5,0-2.2-0.2c-0.7-0.1-1.5-0.3-2.1-0.8s-1-1.2-1.3-1.8l0,0l0,0
		c-0.1-1.4,0-2.8,0.1-4.2c0.1-1.4,0.3-2.8,0.7-4.1c0.4-1.3,1-2.6,1.9-3.7c0.8-1.1,1.9-2,3.1-2.7l0,0c0.2-0.4,0.6-0.7,1.1-0.7
		c0.4-0.1,0.9,0.1,1.3,0.3C249.2,383.1,249.9,383.6,250.6,384.2z"/>
</g>
<path class="st36" d="M243.1,390.9c0.6,1.5,2,2.2,3.4,2.7c1.2,0.4,4.8,1.3,6.2,0.2c0-0.2,0.1-0.4,0.1-0.6c0.2-1.5,0.5-2.9,0.7-4.4
	c-0.2-1.9-1.3-3.4-2.9-4.6c-1.2-0.9-3.3-2.7-4.5-1c0,0,0,0.1-0.1,0.1c-1.1,0.7-2.1,1.5-2.9,2.6C242.9,387.5,242.5,389.3,243.1,390.9
	z"/>
<path class="st16" d="M251.4,392.2c0.7-0.4,1.3-1,1.7-1.7c1.2-2,2.2-4.4,2.2-6.7c0-2.3-0.4-5.3-0.8-7.6c-0.2-1.2-1.1-2.5-2.7-2.5
	c-2.2,1.3-4.9,3.6-6.3,7.9c-0.6,1.7-1.5,3.9-1.5,5.7c0,1.9,1.2,3.8,2.9,4.5C248.2,392.2,249.9,392.5,251.4,392.2z"/>
<g>
	<path class="st16" d="M251.4,392.2c0.7-0.4,1.3-1,1.7-1.7c1.2-2,2.2-4.4,2.2-6.7c0-2.3-0.4-5.3-0.8-7.6c-0.2-1.2-1.1-2.5-2.7-2.5
		c-2.2,1.3-4.9,3.6-6.3,7.9c-0.6,1.7-1.5,3.9-1.5,5.7c0,1.9,1.2,3.8,2.9,4.5C248.2,392.2,249.9,392.5,251.4,392.2z"/>
	<path class="st2" d="M251.4,392.2c1.6-0.9,2.2-2.7,2.9-4.3c0.6-1.6,1-3.4,0.8-5.2c-0.1-1.8-0.3-3.5-0.6-5.3
		c-0.2-0.9-0.2-1.8-0.7-2.5s-1.3-1.2-2.1-1.2h0.1c-1.9,1.2-3.5,2.7-4.7,4.5s-1.8,4-2.5,6.1c-0.3,1-0.6,2.1-0.5,3.2s0.5,2.1,1.3,2.9
		c0.4,0.4,0.8,0.7,1.3,1c0.5,0.2,1,0.4,1.6,0.5C249.2,392.3,250.3,392.4,251.4,392.2z M251.4,392.2c-1.1,0.2-2.2,0.1-3.3-0.1
		c-0.5-0.1-1.1-0.3-1.6-0.5s-1-0.6-1.3-1c-0.8-0.8-1.2-1.9-1.3-3s0.2-2.2,0.5-3.3c0.7-2.1,1.3-4.3,2.5-6.1c1.2-1.9,2.9-3.4,4.8-4.6
		l0,0l0,0c0.9,0,1.8,0.5,2.3,1.3s0.6,1.7,0.7,2.6c0.3,1.7,0.5,3.5,0.6,5.3s-0.2,3.6-0.9,5.2c-0.3,0.8-0.7,1.6-1.2,2.4
		C252.8,391.1,252.1,391.7,251.4,392.2z"/>
</g>
<path class="st36" d="M252.2,374.2c0.3,0.8,0.1,1.9,0,2.8c-0.2,1.6-0.7,3.2-0.8,4.8c-0.1,1.2,0.5,1.9,1.1,2.9c0.6,0.9,1,1.7,0.8,2.7
	c-0.1,0.6-0.3,1.2-0.3,1.8c0,0.4,0.1,0.7,0.2,1.1c1.1-1.9,2-4.2,2-6.4c0-2.3-0.4-5.3-0.8-7.6c-0.2-1.2-1.1-2.5-2.7-2.5
	c-0.1,0-0.1,0.1-0.2,0.1C251.8,373.8,252.1,373.9,252.2,374.2z"/>
<path class="st17" d="M246.5,416.9c-0.2,0-0.5-0.1-0.7-0.1c-1.4,0.2-2.7,0.8-4,1.4l0,0c-0.4,0.2-0.9,0.5-1.5,0.6
	c-0.7,0.4-1.3,0.7-2.1,0.9c-0.5,0.1-1.1,0.2-1.7,0c-0.4-0.1-0.9-0.5-1.4-0.6c0.2,0.6,1.2,1.2,1.7,1.3c0.7,0.2,1.3-0.1,1.9-0.4
	c0.2-0.1,0.4-0.2,0.6-0.3c-0.1,0.3-0.2,0.6-0.3,0.8c0-0.2-0.1,0.1-0.1,0.1c-0.1,0.1-0.3,0.3-0.4,0.4c-0.2,0.1-0.5,0.5-0.8,0.6
	c0.6-0.1,1.1-0.3,1.7-0.5c0.2-0.2,0.4-0.4,0.5-0.7c0.2-0.3,0.2-0.8,0.4-1.1c0,0,0-0.1,0.1-0.1c0.2-0.1,0.5-0.2,0.7-0.4
	c0.4,0.1,0.9,0.1,1.4,0.2c0.4,0,0.8,0,1.2,0c0.7,0,1.3-0.2,2-0.4c-0.7-0.2-1.6-0.2-2.3-0.3c-0.4,0-0.8,0-1.2,0
	C243.6,417.7,245,417.1,246.5,416.9L246.5,416.9z"/>
<path class="st14" d="M262.3,373c0.4,1.6,0.1,3.4,0.2,5.1c0,1.3,0.2,2.6,0.4,3.9c2.7-3.8,0.8-8,0.8-8s-0.9-1.8-2.4-2.8
	C261.8,371.8,262.2,372.5,262.3,373z"/>
<g>
	<path class="st16" d="M263.7,372.6c0,0-2.9-6.3-6.7-2.9c-3.9,3.4-6,11.6-3.8,14.2s6.4,2.5,9.5-1.9
		C265.8,377.5,263.7,372.6,263.7,372.6z"/>
	<path class="st2" d="M263.7,372.6c-0.4-0.8-0.9-1.7-1.6-2.3c-0.6-0.7-1.4-1.3-2.4-1.5c-0.9-0.2-1.9,0.2-2.6,0.8
		c-0.7,0.6-1.4,1.3-1.9,2.1c-1.1,1.6-1.8,3.3-2.3,5.1c-0.2,0.9-0.4,1.8-0.5,2.8c-0.1,0.9-0.1,1.9,0.2,2.8c0.4,1.8,2.3,3.1,4.1,3.1
		c1.9,0.1,3.6-1,4.9-2.4s2.3-3.1,2.6-4.9C264.6,376.3,264.4,374.3,263.7,372.6z M263.7,372.6c0.7,1.8,0.9,3.7,0.6,5.6
		s-1.2,3.6-2.5,5s-3.1,2.5-5,2.5s-3.9-1.2-4.4-3.2c-0.2-0.9-0.2-1.9-0.1-2.9c0.1-1,0.3-1.9,0.6-2.8c0.5-1.8,1.3-3.6,2.4-5.2
		c0.5-0.8,1.2-1.5,1.9-2.1c0.7-0.6,1.7-1,2.7-0.8s1.7,0.8,2.4,1.5C262.8,370.9,263.3,371.7,263.7,372.6z"/>
</g>
<path class="st23" d="M263.7,372.6c0,0-2.2-4.9-5.4-3.7c0.2,0,0.5,0.1,0.7,0.3c2.2,1.3,2.7,4.5,2.8,7c0.1,3-0.4,6.8-2.5,8.8
	c1.2-0.6,2.3-1.5,3.4-3C265.8,377.5,263.7,372.6,263.7,372.6z"/>
<g>
	<path class="st16" d="M273.2,365.7c-0.5-0.6-1-1.2-1.6-1.7c-1.5-0.7-3.8-0.8-6.4,2.2c-4.7,5.6-1.1,14.6-0.6,14.4
		c0.5-0.3,8.2,1,9.9-3c1.1-2.5,0.5-6.5-0.1-9.1C274,367.5,273.5,366.6,273.2,365.7z"/>
	<path class="st2" d="M273.2,365.7l-1.6-1.7l0,0c-0.8-0.4-1.7-0.5-2.6-0.3s-1.7,0.6-2.3,1.2c-1.4,1.1-2.4,2.6-3,4.3
		c-0.6,1.7-0.8,3.5-0.7,5.2c0.1,1.8,0.5,3.5,1.1,5.2c0.1,0.2,0.2,0.4,0.3,0.6c0,0.1,0.1,0.2,0.2,0.3l0.1,0.1l0,0h0.1h0.1
		c0.5,0,0.9,0,1.4,0c0.9,0,1.8,0,2.7,0c1.7-0.1,3.6-0.5,4.9-1.7c0.6-0.6,1-1.5,1.1-2.3c0.2-0.9,0.2-1.8,0.2-2.6
		c0-1.8-0.3-3.5-0.6-5.3l0,0L273.2,365.7z M273.2,365.7l1.2,2.7l0,0l0,0c0.4,1.7,0.7,3.5,0.7,5.3c0,0.9,0,1.8-0.2,2.7
		c-0.2,0.9-0.5,1.8-1.2,2.4c-1.3,1.3-3.2,1.7-5,1.8c-0.9,0.1-1.8,0.1-2.7,0.1c-0.4,0-0.9,0-1.3,0h-0.1l0,0h-0.1
		c-0.1,0-0.2-0.1-0.2-0.1c-0.1-0.1-0.1-0.2-0.2-0.3c-0.1-0.2-0.2-0.4-0.3-0.6c-0.7-1.7-1-3.5-1.1-5.2c-0.1-1.8,0.1-3.6,0.7-5.3
		c0.6-1.7,1.7-3.2,3.1-4.3c0.7-0.6,1.5-1,2.4-1.2s1.8,0,2.6,0.4l0,0l0,0L273.2,365.7z"/>
</g>
<path class="st23" d="M273.2,365.7c-0.5-0.6-1-1.2-1.6-1.7c-1.4-0.7-3.5-0.8-5.8,1.5c0.8-0.5,1.6-0.7,2.3-0.8
	c2.5-0.2,3.9,1.4,3.8,3.8c0,1.9-0.3,3.8-0.2,5.6c0.1,1.1,0.3,2.3,0.3,3.4c0,1.3-0.4,2.1-1.3,2.6c1.6-0.4,3-1.1,3.6-2.6
	c1.1-2.5,0.5-6.5-0.1-9.1C274,367.5,273.5,366.6,273.2,365.7z"/>
<g>
	<path class="st16" d="M286.6,364.1c0,0-2-5-7.5-2.9s-4.4,14-4.4,14s-0.1,2.9,2.5,3.2c2.6,0.3,11.1,0.6,11-1.3
		C288.1,375.2,288.4,366.5,286.6,364.1z"/>
	<path class="st2" d="M286.6,364.1c-0.8-1.8-2.7-3.3-4.7-3.3c-1,0-2,0.2-3,0.6c-0.9,0.4-1.7,1.1-2.2,2c-1.1,1.7-1.5,3.8-1.8,5.8
		c-0.2,2-0.3,4.1-0.1,6.1l0,0l0,0c0,1.2,0.5,2.5,1.6,2.9c0.5,0.2,1.2,0.2,1.8,0.3c0.6,0,1.2,0.1,1.8,0.1c1.2,0,2.4,0,3.6,0
		c1.2-0.1,2.4-0.2,3.6-0.5c0.3-0.1,0.6-0.2,0.7-0.5c0.2-0.2,0.1-0.5,0.1-0.8V375c0-1.2,0-2.4-0.1-3.7c-0.1-1.2-0.1-2.4-0.3-3.6
		C287.5,366.4,287.3,365.2,286.6,364.1z M286.6,364.1c0.7,1,0.9,2.2,1.2,3.4c0.2,1.2,0.3,2.4,0.4,3.6s0.1,2.4,0.1,3.7v1.8
		c0,0.2,0,0.3,0,0.5s-0.1,0.3-0.2,0.5c-0.2,0.3-0.5,0.4-0.8,0.5c-1.2,0.4-2.4,0.5-3.6,0.6s-2.4,0.1-3.7,0c-0.6,0-1.2,0-1.8-0.1
		c-0.6-0.1-1.2,0-1.8-0.3c-0.6-0.2-1.1-0.7-1.4-1.3c-0.3-0.6-0.4-1.2-0.4-1.8l0,0c-0.1-2-0.1-4.1,0.1-6.1c0.3-2,0.7-4.1,1.8-5.8
		c0.6-0.9,1.3-1.6,2.3-2s2-0.6,3-0.6C284,360.8,285.8,362.3,286.6,364.1z"/>
</g>
<path class="st17" d="M247,410c0.1-0.1,0.1-0.2,0.2-0.2c-0.7,0.1-1.4,0.1-2.1,0c-0.1,0-0.1,0-0.2-0.1c-0.5-0.1-1-0.3-1.5-0.4
	c-0.2,0-0.4,0-0.6,0.1c-0.6,0.2-1.4,0.8-2.2,1c-1.1,0.5-2,0.2-2.9-0.5c0.9,1.1,1.6,1.4,3,0.8c0.3-0.2,0.6-0.4,1-0.6
	c0.2,0.6,0.8,1.1,0.9,1.7c0.1,0.7-0.4,1.3-0.5,1.9l0,0c0.1-0.1,0.2-0.1,0.3-0.2c0.2-0.5,0.5-0.9,0.7-1.3c0.1,0.1,0.1,0.2,0.2,0.3
	c0.2,0.3,0.6,0.6,0.9,0.7c0.3,0.2,0.8,0,1.1-0.1c-0.1,0-0.2-0.1-0.3-0.1c-0.8-0.2-1.6-0.7-1.7-1.5l0,0c0-0.1,0-0.2,0-0.2
	c0-0.5-0.3-0.8-0.7-1.1c0,0,0,0,0-0.1l0,0c0.3-0.1,0.7-0.2,0.6-0.2c0.7,0.1,1.3,0.4,2.1,0.4C245.9,410.4,246.4,410.3,247,410z"/>
<path class="st17" d="M245.3,404.3c0-0.1,0-0.2,0.1-0.2c0.8-0.2,2-1,2.9-1c-0.3-0.1-0.6-0.2-0.9-0.2c-0.4,0.1-0.7,0.2-1.1,0.4
	c-0.4,0.2-0.8,0.2-1.1,0.2c-0.2,0-0.4,0-0.6,0c-1-0.1-1.7-0.9-2.3-1.7c0,0,0,0,0,0.1c0.2,0.4,0.3,0.9,0.5,1.4c0.4,0.9-0.4,1.3-1,1.7
	c-0.3,0.1-0.5,0.4-0.7,0.6c0,0.2,0,0.4,0.1,0.5c0.1-0.1,0.2-0.2,0.1-0.3c-0.2-0.5,1-0.7,1.3-0.9c0.4-0.2,0.6-0.6,0.8-1
	c0.1-0.1,0.1-0.2,0.2-0.4c0.4,0.4,0.9,0.6,1.5,0.7c-0.1,0.2-0.2,0.4-0.1,0.6c0.1,0.2,0.4,0.3,0.6,0.4c0.1,0,0.2,0.1,0.2,0.1
	s0.1,0,0.1,0.1l0.1,0.1c0-0.2-0.1-0.4-0.3-0.6C245.5,404.7,245.3,404.5,245.3,404.3z"/>
<path class="st17" d="M247.4,397c-0.1-0.1,0-0.3,0.2-0.3c0.9,0,1.6-0.4,2.4-0.7c0,0,0,0-0.1,0c-0.8,0.2-1.7,0.4-2.4,0.1l0,0
	c-0.1,0-0.2-0.1-0.3-0.2c-0.5-0.3-0.9-0.7-1.3-1.1c0.2,0.5,0.4,0.9,0.3,1.4c-0.1,0.5-0.4,0.8-0.8,1.1c-0.7,0.5-1.1,1.1-1.1,1.9l0,0
	c0.3-1,1-1.3,1.7-1.8c0.3-0.2,0.4-0.6,0.6-0.9l0,0c0,0.1-0.1,0.2-0.1,0.2c0.1,0.3,0.2,0.5,0.4,0.7c0.1,0.1,0.3,0.2,0.4,0.4
	c0,0.1,0.1,0.3,0.1,0.4s0.2,0.2,0.3,0.3c0.2,0.1,0.3,0.4,0.5,0.5c0,0,0,0,0.1,0C247.9,398.3,247.7,397.6,247.4,397z"/>
<path class="st19" d="M332.7,403.4c1.5-0.8,4.5-2.4,5.5-0.2v0.1c1.6,1.6,2.8,3.1,3.6,5.5c1,2.7,0.9,5.9,0.5,8.8
	c-0.1,1-0.3,2.8-0.7,4.4c-0.6,0.9-1.4,1.8-2.4,2.1c-1.2,0.4-2.5,0.3-3.8,0.1c-1.1-0.2-2.3-0.2-3.4-0.4h-0.1
	c-0.7-0.3-1.4-0.7-2.1-1.2c-0.4-0.6-0.8-1.3-1.1-2c-0.8-2.2-0.6-4.6-0.6-6.9c0-1.8,0.1-3.6,0.1-5.4
	C328.9,406,330.5,404.5,332.7,403.4z"/>
<path class="st36" d="M328.1,413.6c0-1.8,0.1-3.6,0.1-5.4c0.7-2.3,2.3-3.8,4.4-4.9c1.5-0.8,4.5-2.4,5.5-0.2v0.1
	c1.6,1.5,2.8,3.1,3.6,5.4c0,1.2-0.1,2.4-0.5,3.5c-0.8,2.2-2.6,2.9-4.7,3.3c-2,0.4-3.9,0-5.8-0.4c-0.8-0.1-1.8-0.2-2,0.7
	c0,0.1,0,0.2,0.1,0.2c0.8,0.4,1.7,0.4,2.6,0.6c1.1,0.3,2.1,0.9,3,1.5c1.2,0.8,2.5,1.5,4,1.6c-1.4,0.2-2.8-0.5-4.1-1
	c-1.5-0.6-3-1.2-4.6-0.9c-0.1,0-0.2,0.2-0.1,0.3c0.2,0.5,0.5,1,1,1.1c0.4,0.1,1.6,0.1,1.6,0.6c0,1.1,0,2.2,0.8,3.1
	c0.4,0.5,1,0.8,1.6,1.1c-0.8-0.1-1.7-0.2-2.5-0.3H332c-0.7-0.3-1.4-0.7-2.1-1.2c-0.4-0.6-0.8-1.3-1.1-2
	C327.9,418.3,328.1,415.9,328.1,413.6z"/>
<path class="st16" d="M329.4,394.8c1.4-1,4.1-3.1,5.4-1.1c0,0,0,0.1,0.1,0.1c1.8,1.3,3.2,2.7,4.4,4.9c1.4,2.5,1.7,5.7,1.9,8.6
	c0,1,0.1,2.8,0,4.5c-0.5,1-1.1,2-2.1,2.5c-1.2,0.6-2.5,0.7-3.7,0.7c-1.1,0-2.3,0.1-3.4,0.1h-0.1c-0.7-0.2-1.5-0.4-2.3-0.8
	c-0.5-0.5-1-1.1-1.4-1.8c-1.1-2-1.3-4.4-1.6-6.7c-0.2-1.8-0.4-3.6-0.7-5.4C326.1,398,327.5,396.3,329.4,394.8z"/>
<g>
	<path class="st16" d="M329.4,394.8c1.4-1,4.1-3.1,5.4-1.1c0,0,0,0.1,0.1,0.1c1.8,1.3,3.2,2.7,4.4,4.9c1.4,2.5,1.7,5.7,1.9,8.6
		c0,1,0.1,2.8,0,4.5c-0.5,1-1.1,2-2.1,2.5c-1.2,0.6-2.5,0.7-3.7,0.7c-1.1,0-2.3,0.1-3.4,0.1h-0.1c-0.7-0.2-1.5-0.4-2.3-0.8
		c-0.5-0.5-1-1.1-1.4-1.8c-1.1-2-1.3-4.4-1.6-6.7c-0.2-1.8-0.4-3.6-0.7-5.4C326.1,398,327.5,396.3,329.4,394.8z"/>
	<path class="st2" d="M329.4,394.8c0.8-0.6,1.7-1.3,2.7-1.7c0.5-0.2,1-0.4,1.5-0.3s1,0.5,1.2,0.9l0,0c1.4,0.9,2.6,2.1,3.6,3.5
		s1.7,2.9,2.1,4.5s0.6,3.3,0.7,5s0.2,3.3,0,5l0,0l0,0c-0.4,0.8-0.9,1.6-1.6,2.1c-0.7,0.6-1.6,0.8-2.5,0.9s-1.8,0.1-2.6,0.1l-2.6,0.1
		l0,0l0,0c-0.9-0.2-1.7-0.5-2.4-0.9l0,0l0,0c-0.9-0.9-1.5-2-1.9-3.1c-0.4-1.2-0.6-2.4-0.8-3.6l-0.9-7.2l0,0l0,0
		c0.1-1.1,0.6-2.2,1.2-3.1C327.7,396.3,328.5,395.5,329.4,394.8z M329.4,394.8c-0.9,0.7-1.8,1.4-2.4,2.4c-0.7,0.9-1.1,2-1.2,3.1l0,0
		l1,7.2c0.2,1.2,0.4,2.4,0.8,3.5s1.1,2.2,1.9,3l0,0c0.8,0.4,1.6,0.7,2.4,0.8l0,0l2.6-0.1c0.9-0.1,1.8,0,2.6-0.1
		c0.8-0.1,1.7-0.4,2.4-0.9c0.7-0.5,1.1-1.3,1.5-2.1l0,0c0.2-1.6,0.1-3.3,0-5s-0.3-3.3-0.6-4.9c-0.4-1.6-1-3.2-2-4.5
		c-0.9-1.4-2.2-2.5-3.5-3.5l0,0l0,0c-0.3-0.4-0.7-0.8-1.2-0.9s-1,0-1.5,0.2C331.1,393.6,330.3,394.2,329.4,394.8z"/>
</g>
<path class="st36" d="M329.4,394.8c1.4-1,4.1-3.1,5.4-1.1c0,0,0,0.1,0.1,0.1c1.8,1.3,3.2,2.7,4.4,4.9c0.1,0.2,0.2,0.4,0.3,0.6
	c-0.1-0.1-0.2-0.1-0.2-0.2c-0.1-0.1-0.3,0-0.3,0.2c0,2.5,1.3,6.1-1.2,7.8c-1.3,0.9-2.9,1.1-4.4,1.1c-0.6,0-1.3,0-1.9-0.1
	c-0.4-0.1-0.9-0.2-1.3-0.2c-0.9,0-0.9,0.7-0.7,1.4c0.2,0.9-0.2,1.5-0.5,2.3c-0.1,0.3-0.2,0.6-0.2,0.9c0,0.2,0,0.6,0,1.1
	c-0.3-0.4-0.5-0.7-0.8-1.1c-1.1-2-1.3-4.4-1.6-6.7c-0.2-1.8-0.4-3.6-0.7-5.4C326.1,398,327.5,396.3,329.4,394.8z"/>
<path class="st19" d="M328.3,390.8c1.2-0.8,3.6-2.6,4.8-0.9c0,0,0,0.1,0.1,0.1c1.6,1.1,2.9,2.2,4,4c1.2,2.1,1.6,4.7,1.7,7.1
	c0.1,1.4,0.3,3-0.5,4.3c-0.7,1.2-1.9,1.7-3.2,1.9c-2.5,0.4-5.8,0.5-7.6-1.6c-1.4-1.6-1.5-4-1.8-6c-0.2-1.5-0.4-3-0.6-4.4
	C325.3,393.4,326.5,392,328.3,390.8z"/>
<path class="st36" d="M328.3,390.8c1.2-0.8,3.6-2.6,4.8-0.9c0,0,0,0.1,0.1,0.1c1.4,0.9,2.6,1.9,3.5,3.3l-0.1-0.1
	c-0.1-0.1-0.3,0-0.3,0.1c-0.4,2.2,0.8,5.2-1.3,6.9c-1.7,1.4-4.5,1.7-6.5,1.3c-1-0.2-2.2-0.4-2.3,1c0,0.2,0,0.3,0,0.5
	c-0.3-1.1-0.4-2.3-0.5-3.3c-0.2-1.5-0.4-3-0.6-4.4C325.3,393.4,326.5,392,328.3,390.8z"/>
<path class="st16" d="M325.6,384.2c1.2-0.9,3.3-2.7,4.5-1c0,0,0,0.1,0.1,0.1c1.6,1,2.8,2.1,3.8,3.9c1.2,2.1,1.6,4.7,1.8,7.1
	c0.1,0.9,0.2,2.3,0.1,3.7c-0.4,0.8-0.9,1.6-1.7,2.1c-1,0.5-2.1,0.6-3.1,0.6s-1.9,0.2-2.9,0.2h-0.1c-0.6-0.1-1.3-0.3-1.9-0.6
	c-0.5-0.4-0.9-0.9-1.2-1.5c-1-1.6-1.2-3.6-1.5-5.5c-0.2-1.5-0.5-2.9-0.7-4.4C322.9,386.9,324,385.4,325.6,384.2z"/>
<g>
	<path class="st19" d="M325.6,384.2c1.2-0.9,3.3-2.7,4.5-1c0,0,0,0.1,0.1,0.1c1.6,1,2.8,2.1,3.8,3.9c1.2,2.1,1.6,4.7,1.8,7.1
		c0.1,0.9,0.2,2.3,0.1,3.7c-0.4,0.8-0.9,1.6-1.7,2.1c-1,0.5-2.1,0.6-3.1,0.6s-1.9,0.2-2.9,0.2h-0.1c-0.6-0.1-1.3-0.3-1.9-0.6
		c-0.5-0.4-0.9-0.9-1.2-1.5c-1-1.6-1.2-3.6-1.5-5.5c-0.2-1.5-0.5-2.9-0.7-4.4C322.9,386.9,324,385.4,325.6,384.2z"/>
	<path class="st36" d="M333.1,390.9c-0.6,1.5-2,2.2-3.4,2.7c-1.2,0.4-4.8,1.3-6.2,0.2c0-0.2-0.1-0.4-0.1-0.6
		c-0.2-1.5-0.5-2.9-0.7-4.4c0.2-1.9,1.3-3.4,2.9-4.6c1.2-0.9,3.3-2.7,4.5-1c0,0,0,0.1,0.1,0.1c1.1,0.7,2.1,1.5,2.9,2.6
		C333.4,387.5,333.7,389.3,333.1,390.9z"/>
</g>
<g>
	<g>
		<path class="st16" d="M324.9,392.2c-0.7-0.4-1.3-1-1.7-1.7c-1.2-2-2.2-4.4-2.2-6.7c0-2.3,0.4-5.3,0.8-7.6c0.2-1.2,1.1-2.5,2.7-2.5
			c2.2,1.3,4.9,3.6,6.3,7.9c0.6,1.7,1.5,3.9,1.5,5.7c0,1.9-1.2,3.8-2.9,4.5C328,392.2,326.4,392.5,324.9,392.2z"/>
		<path class="st2" d="M324.9,392.2c-0.7-0.5-1.4-1.1-1.8-1.9s-0.8-1.6-1.2-2.4c-0.7-1.6-1-3.4-0.9-5.2c0.1-1.8,0.3-3.5,0.6-5.3
			c0.2-0.9,0.2-1.8,0.7-2.6c0.5-0.8,1.4-1.3,2.3-1.3l0,0l0,0c1.9,1.1,3.6,2.7,4.8,4.6c1.2,1.9,1.8,4,2.5,6.1
			c0.3,1.1,0.6,2.2,0.5,3.3c-0.1,1.1-0.6,2.2-1.3,3c-0.4,0.4-0.8,0.8-1.3,1s-1.1,0.4-1.6,0.5C327.1,392.3,326,392.4,324.9,392.2z
			 M324.9,392.2c1.1,0.2,2.2,0.1,3.3-0.2c0.5-0.1,1.1-0.3,1.6-0.5s0.9-0.6,1.3-1c0.7-0.8,1.2-1.9,1.3-2.9c0.1-1.1-0.2-2.2-0.5-3.2
			c-0.7-2.1-1.3-4.2-2.5-6.1c-1.2-1.8-2.8-3.4-4.7-4.5h0.1c-0.9,0-1.7,0.5-2.1,1.2c-0.5,0.7-0.6,1.6-0.7,2.5
			c-0.3,1.7-0.5,3.5-0.6,5.3s0.2,3.5,0.8,5.2C322.6,389.5,323.3,391.3,324.9,392.2z"/>
	</g>
	<path class="st36" d="M324,374.2c-0.3,0.8-0.1,1.9,0,2.8c0.2,1.6,0.7,3.2,0.8,4.8c0.1,1.2-0.5,1.9-1.1,2.9
		c-0.6,0.9-0.9,1.7-0.8,2.7c0.1,0.6,0.3,1.2,0.3,1.8c0,0.4-0.1,0.7-0.2,1.1c-1.1-1.9-2-4.2-2-6.4c0-2.3,0.4-5.3,0.8-7.6
		c0.2-1.2,1.1-2.5,2.7-2.5c0.1,0,0.1,0.1,0.2,0.1C324.5,373.8,324.2,373.9,324,374.2z"/>
</g>
<path class="st14" d="M313.9,373c-0.4,1.6-0.1,3.4-0.2,5.1c0,1.3-0.2,2.6-0.4,3.9c-2.7-3.8-0.8-8-0.8-8s0.9-1.8,2.4-2.8
	C314.5,371.8,314.1,372.5,313.9,373z"/>
<path class="st19" d="M312.6,372.6c0,0,2.9-6.3,6.7-2.9c3.9,3.4,6,11.6,3.8,14.2s-6.4,2.5-9.5-1.9
	C310.4,377.5,312.6,372.6,312.6,372.6z"/>
<path class="st23" d="M312.6,372.6c0,0,2.2-4.9,5.4-3.7c-0.2,0-0.5,0.1-0.7,0.3c-2.2,1.3-2.7,4.5-2.8,7c-0.1,3,0.4,6.8,2.5,8.8
	c-1.2-0.6-2.3-1.5-3.4-3C310.4,377.5,312.6,372.6,312.6,372.6z"/>
<g>
	<path class="st16" d="M303.1,365.7c0.5-0.6,1-1.2,1.6-1.7c1.5-0.7,3.8-0.8,6.4,2.2c4.7,5.6,1.1,14.6,0.6,14.4c-0.5-0.3-8.2,1-9.9-3
		c-1.1-2.5-0.5-6.5,0.1-9.1C302.3,367.5,302.7,366.6,303.1,365.7z"/>
	<path class="st2" d="M303.1,365.7l1.6-1.8l0,0l0,0c0.8-0.4,1.7-0.6,2.6-0.4s1.7,0.6,2.4,1.2c1.4,1.1,2.5,2.6,3.1,4.3
		c0.6,1.7,0.8,3.5,0.7,5.3c-0.1,1.8-0.4,3.6-1.1,5.2c-0.1,0.2-0.2,0.4-0.3,0.6c-0.1,0.1-0.1,0.2-0.2,0.3c0,0-0.1,0.1-0.2,0.1h-0.1
		l0,0h-0.1c-0.4,0-0.9,0-1.3,0c-0.9,0-1.8,0-2.7-0.1c-1.8-0.1-3.6-0.5-5-1.8c-0.7-0.6-1-1.5-1.2-2.4s-0.2-1.8-0.2-2.7
		c0-1.8,0.3-3.6,0.7-5.3l0,0l0,0L303.1,365.7z M303.1,365.7l-1.2,2.7l0,0c-0.3,1.7-0.6,3.5-0.6,5.3c0,0.9,0.1,1.8,0.2,2.6
		c0.2,0.9,0.5,1.7,1.1,2.3c1.3,1.2,3.1,1.6,4.9,1.7c0.9,0.1,1.8,0.1,2.7,0c0.5,0,0.9-0.1,1.4,0h0.1h0.1l0,0c0,0,0,0,0.1-0.1
		s0.1-0.2,0.2-0.3c0.1-0.2,0.2-0.4,0.3-0.6c0.7-1.6,1-3.4,1.1-5.2c0.1-1.8-0.1-3.6-0.7-5.2c-0.6-1.7-1.7-3.1-3-4.3
		c-0.7-0.5-1.5-1-2.3-1.2c-0.9-0.2-1.8-0.1-2.6,0.3l0,0L303.1,365.7z"/>
</g>
<path class="st23" d="M303.1,365.7c0.5-0.6,1-1.2,1.6-1.7c1.4-0.7,3.5-0.8,5.8,1.5c-0.8-0.5-1.6-0.7-2.3-0.8
	c-2.5-0.2-3.9,1.4-3.8,3.8c0,1.9,0.3,3.8,0.2,5.6c-0.1,1.1-0.3,2.3-0.3,3.4c0,1.3,0.4,2.1,1.2,2.6c-1.6-0.4-3-1.1-3.6-2.6
	c-1.1-2.5-0.5-6.5,0.1-9.1C302.3,367.5,302.7,366.6,303.1,365.7z"/>
<g>
	<path class="st16" d="M289.7,364.1c0,0,2-5,7.5-2.9s4.4,14,4.4,14s0.1,2.9-2.5,3.2c-2.6,0.3-11.1,0.6-11-1.3
		C288.1,375.2,287.9,366.5,289.7,364.1z"/>
	<path class="st2" d="M289.7,364.1c0.8-1.9,2.6-3.4,4.7-3.4c1-0.1,2.1,0.2,3,0.6c1,0.4,1.7,1.2,2.3,2c1.1,1.8,1.6,3.8,1.8,5.8
		c0.2,2,0.3,4.1,0.1,6.1l0,0c0,0.6-0.1,1.3-0.4,1.8c-0.3,0.6-0.8,1.1-1.4,1.3c-0.6,0.2-1.2,0.2-1.8,0.3c-0.6,0-1.2,0.1-1.8,0.1
		c-1.2,0-2.4,0-3.7,0c-1.2-0.1-2.5-0.2-3.6-0.6c-0.3-0.1-0.6-0.2-0.8-0.5c-0.1-0.1-0.2-0.3-0.2-0.5s0-0.3,0-0.5v-1.8
		c0-1.2,0-2.4,0.1-3.7c0.1-1.2,0.2-2.4,0.4-3.6C288.7,366.4,289,365.1,289.7,364.1z M289.7,364.1c-0.7,1-0.9,2.3-1.1,3.5
		s-0.3,2.4-0.3,3.6c-0.1,1.2-0.1,2.4-0.1,3.7v1.8c0,0.3-0.1,0.6,0.1,0.8c0.2,0.2,0.5,0.3,0.7,0.5c1.1,0.4,2.4,0.5,3.6,0.5
		c1.2,0.1,2.4,0.1,3.6,0c0.6,0,1.2-0.1,1.8-0.1c0.6-0.1,1.2-0.1,1.8-0.3c1.1-0.4,1.6-1.7,1.6-2.9l0,0l0,0c0.2-2,0.1-4.1-0.1-6.1
		c-0.3-2-0.7-4-1.8-5.8c-0.5-0.8-1.3-1.6-2.2-2c-0.9-0.4-1.9-0.6-3-0.6C292.3,360.8,290.5,362.3,289.7,364.1z"/>
</g>
<path class="st17" d="M330.3,410c-0.1-0.1-0.1-0.2-0.2-0.2c0.7,0.1,1.4,0.1,2.1,0c0.1,0,0.1,0,0.2-0.1c0.5-0.1,1-0.3,1.5-0.4
	c0.2,0,0.4,0,0.6,0.1c0.6,0.2,1.4,0.8,2.2,1c1.1,0.5,2,0.2,2.9-0.5c-0.9,1.1-1.6,1.4-3,0.8c-0.3-0.2-0.6-0.4-1-0.6
	c-0.2,0.6-0.8,1.1-0.9,1.7c-0.1,0.7,0.4,1.3,0.5,1.9l0,0c-0.1-0.1-0.2-0.1-0.3-0.2c-0.2-0.5-0.5-0.9-0.7-1.3
	c-0.1,0.1-0.1,0.2-0.2,0.3c-0.2,0.3-0.6,0.6-0.9,0.7c-0.3,0.2-0.8,0-1.1-0.1c0.1,0,0.2-0.1,0.3-0.1c0.8-0.2,1.6-0.7,1.7-1.5l0,0
	c0-0.1,0-0.2,0-0.2c0-0.5,0.3-0.8,0.7-1.1c0,0,0,0,0-0.1l0,0c-0.3-0.1-0.7-0.2-0.6-0.2c-0.7,0.1-1.3,0.4-2.1,0.4
	C331.4,410.4,330.8,410.3,330.3,410z"/>
<path class="st17" d="M331,404.3c0-0.1,0-0.2-0.1-0.2c-0.8-0.2-2-1-2.9-1c0.3-0.1,0.6-0.2,0.9-0.2c0.4,0.1,0.7,0.2,1.1,0.4
	c0.4,0.2,0.8,0.2,1.1,0.2c0.2,0,0.4,0,0.6,0c1-0.1,1.7-0.9,2.3-1.7c0,0,0,0,0,0.1c-0.2,0.4-0.3,0.9-0.5,1.4c-0.4,0.9,0.4,1.3,1,1.7
	c0.3,0.1,0.5,0.4,0.7,0.6c0,0.2,0,0.4-0.1,0.5c-0.1-0.1-0.2-0.2-0.1-0.3c0.2-0.5-1-0.7-1.3-0.9c-0.4-0.2-0.6-0.6-0.8-1
	c-0.1-0.1-0.1-0.2-0.2-0.4c-0.4,0.4-0.9,0.6-1.5,0.7c0.1,0.2,0.2,0.4,0.1,0.6s-0.4,0.3-0.6,0.4c-0.1,0-0.2,0.1-0.2,0.1
	s-0.1,0-0.1,0.1l-0.1,0.1c0-0.2,0.1-0.4,0.3-0.6C330.8,404.7,330.9,404.5,331,404.3z"/>
<path class="st17" d="M328.9,397c0.1-0.1,0-0.3-0.2-0.3c-0.9,0-1.6-0.4-2.4-0.7c0,0,0,0,0.1,0c0.8,0.2,1.7,0.4,2.4,0.1l0,0
	c0.1,0,0.2-0.1,0.3-0.2c0.5-0.3,0.9-0.7,1.3-1.1c-0.2,0.5-0.4,0.9-0.3,1.4s0.4,0.8,0.8,1.1c0.7,0.5,1.1,1.1,1.1,1.9l0,0
	c-0.3-1-1-1.3-1.7-1.8c-0.3-0.2-0.4-0.6-0.6-0.9l0,0c0,0.1,0.1,0.2,0.1,0.2c-0.1,0.3-0.2,0.5-0.4,0.7c-0.1,0.1-0.3,0.2-0.4,0.4
	c0,0.1-0.1,0.3-0.1,0.4s-0.2,0.2-0.3,0.3c-0.2,0.1-0.3,0.4-0.5,0.5c0,0,0,0-0.1,0C328.4,398.3,328.6,397.6,328.9,397z"/>
<radialGradient id="SVGID_43_" cx="281.6922" cy="411.5058" r="128.4973" gradientTransform="matrix(1 0 0 -1 0 841.8898)" gradientUnits="userSpaceOnUse">
	<stop  offset="0" style="stop-color:#B11D37"/>
	<stop  offset="0.639" style="stop-color:#E06059"/>
	<stop  offset="0.7475" style="stop-color:#AA173C"/>
</radialGradient>
<path class="st37" d="M348.6,438.1c4.3-37.1,6.1-66-9.8-88.4c-2.3-3.3-6.6-9.2-14.4-13c-15.2-7.4-31.5-1-36,1
	c-4.2-1.9-19.3-8.3-35-2c-11,4.4-16.9,12.8-19,16c-15.4,22.8-5.9,51.5-7.2,86.4c-0.1,1.4-0.2,5.8-0.1,11.7c0.1,7,0.4,13.9,1.5,20.8
	c2.5,15.2,5.9,30.7,17.5,41.7c7.2,6.9,19.5,8.8,28.9,10.8c4.2,0.9,8.6,1.2,12.9,1.2l0,0l0,0l0,0l0,0c4.3,0,8.7-0.3,12.9-1.2
	c9.3-1.9,21.7-3.9,28.9-10.8c11.6-11.1,15-26.5,17.5-41.7c1.1-6.9,1.5-13.8,1.5-20.8C348.7,446,348.1,441.8,348.6,438.1z
	 M331.1,487.7c-13,14.7-31.8,17.5-42.5,17.7c-0.2,0-0.5,0-0.7,0l0,0l0,0l0,0l0,0c-0.3,0-0.5,0-0.7,0c-2.9,0.1-27.1,0.3-42.5-17.7
	c0,0-12.2-14.4-12.3-39c0,0,0-2.3,0-6c0-0.5,0-4,0-4c0.5-5.9-3.6-61.4,15.8-78.6c9.5-8.4,24.3-10,39.7-10l0,0l0,0
	c15.4,0,30.2,1.6,39.7,10c19.3,17.1,15.2,72.6,15.7,78.6c0.1,0.8-0.1,2.5,0,3C343,453.2,343.5,473.6,331.1,487.7z"/>
<g class="st38">
	<path class="st16" d="M288.3,435.7c0.8,3.6,1.3,7.3,1.7,10.9c0.4,3.7,0.5,7.4,0.6,11.1c0,3.7-0.1,7.4-0.5,11.1
		c-0.3,3.7-1,7.3-1.8,10.9c0.2-1.8,0.5-3.7,0.6-5.5l0.3-2.7l0.2-2.8c0.2-3.7,0.3-7.3,0.3-11s-0.1-7.3-0.3-11
		c-0.1-1.8-0.2-3.7-0.4-5.5C288.7,439.3,288.5,437.5,288.3,435.7z"/>
</g>
</svg>
